<?xml version="1.0" encoding="UTF-8" standalone="no"?>
<svg
   xmlns:dc="http://purl.org/dc/elements/1.1/"
   xmlns:cc="http://creativecommons.org/ns#"
   xmlns:rdf="http://www.w3.org/1999/02/22-rdf-syntax-ns#"
   xmlns:svg="http://www.w3.org/2000/svg"
   xmlns="http://www.w3.org/2000/svg"
   xmlns:sodipodi="http://sodipodi.sourceforge.net/DTD/sodipodi-0.dtd"
   xmlns:inkscape="http://www.inkscape.org/namespaces/inkscape"
   inkscape:version="1.0 (4035a4fb49, 2020-05-01)"
   sodipodi:docname="holb_logo_black.svg"
   viewBox="0 0 312.71286 312.71286"
   height="312.71286"
   width="312.71286"
   id="svg112"
   version="1.1">
  <metadata
     id="metadata118">
    <rdf:RDF>
      <cc:Work
         rdf:about="">
        <dc:format>image/svg+xml</dc:format>
        <dc:type
           rdf:resource="http://purl.org/dc/dcmitype/StillImage" />
        <dc:title></dc:title>
      </cc:Work>
    </rdf:RDF>
  </metadata>
  <defs
     id="defs116" />
  <sodipodi:namedview
     inkscape:current-layer="g120"
     inkscape:window-maximized="1"
     inkscape:window-y="0"
     inkscape:window-x="1920"
     inkscape:cy="156.35643"
     inkscape:cx="156.35643"
     inkscape:zoom="2.2864426"
     inkscape:pagecheckerboard="false"
     showgrid="false"
     id="namedview114"
     inkscape:window-height="1051"
     inkscape:window-width="1920"
     inkscape:pageshadow="2"
     inkscape:pageopacity="0"
     guidetolerance="10"
     gridtolerance="10"
     objecttolerance="10"
     borderopacity="1"
     bordercolor="#666666"
     pagecolor="#ffffff" />
  <g
     id="g120"
     inkscape:label="Image"
     inkscape:groupmode="layer">
    <path
       id="path124"
       d="m 132.85857,311.90812 c -12.68364,-2.2791 -21.65326,-8.54777 -26.19399,-18.30638 -7.042809,-15.1359 4.06868,-33.15518 18.89983,-30.64948 8.09356,1.3674 13.37871,7.23873 13.97836,15.52869 0.70924,9.80525 -3.93592,15.91248 -14.07703,18.50778 -5.00247,1.28022 -5.07458,1.34611 -2.80356,2.56152 3.72122,1.99154 15.25164,2.35874 20.2788,0.64582 17.37275,-5.9195 26.43339,-25.6171 20.54817,-44.67123 -3.2607,-10.55692 -9.1729,-17.3381 -31.47528,-36.10159 -20.41077,-17.17204 -27.97908,-29.08186 -30.288,-47.66254 -1.18666,-9.5494 0.0645,-20.33968 3.29032,-28.37491 4.54523,-11.32206 8.20436,-15.99506 27.35441,-34.93389 19.44395,-19.229476 19.5254,-19.342691 18.78241,-26.108042 -0.61362,-5.587406 -5.6192,-9.980198 -11.37241,-9.980198 -1.59622,0 -12.3688,3.02274 -23.93908,6.7172 -20.563639,6.566094 -21.143669,6.691579 -25.784559,5.578246 -3.32841,-0.798474 -5.84697,-2.238235 -8.42495,-4.81621 -3.73585,-3.735849 -4.74609,-6.528741 -2.36157,-6.528741 0.72362,0 4.89392,-1.789544 9.26732,-3.976765 6.12427,-3.062857 9.7045,-5.738687 15.579009,-11.643563 11.87531,-11.936707 18.0327,-25.744743 19.16464,-42.977054 0.52779,-8.0348702 0.75049,-8.7892025 2.88142,-9.7601174 7.25577,-3.3059505 26.80869,-4.10002886 36.86123,-1.4969991 17.07357,4.4210746 27.52891,14.3836585 32.5424,31.0086825 1.32679,4.399675 1.58925,13.11599 1.90377,63.222696 l 0.36481,58.119435 -12.17776,4.13798 -12.17777,4.13798 26.9734,0.25263 26.97341,0.25263 -0.45427,4.03019 c -0.78236,6.94117 -5.33523,14.83308 -13.07276,22.66026 -7.3563,7.44152 -13.59761,11.33232 -21.28249,13.2674 l -4.38282,1.1036 4.22329,4.69731 c 8.50999,9.46517 12.21808,21.17049 12.293,38.80528 0.0555,13.07168 -1.16605,18.74239 -6.24506,28.9901 -7.75807,15.65314 -21.63449,26.79635 -39.49565,31.71629 -8.1717,2.25092 -19.90275,3.16874 -26.15099,2.04599 z m 0.0134,-254.331019 c 2.50865,-1.757126 2.83585,-6.215666 0.61885,-8.432666 -3.17104,-3.171039 -9.9123,-0.734601 -9.9123,3.582518 0,2.347888 3.55876,6.329787 5.65716,6.329787 0.8381,0 2.47444,-0.665838 3.63629,-1.479639 z"
       style="fill:#000000;stroke-width:0.950495" />
  </g>
</svg>
