<?xml version="1.0" encoding="UTF-8" standalone="no"?>
<svg
   xmlns:dc="http://purl.org/dc/elements/1.1/"
   xmlns:cc="http://creativecommons.org/ns#"
   xmlns:rdf="http://www.w3.org/1999/02/22-rdf-syntax-ns#"
   xmlns:svg="http://www.w3.org/2000/svg"
   xmlns="http://www.w3.org/2000/svg"
   xmlns:sodipodi="http://sodipodi.sourceforge.net/DTD/sodipodi-0.dtd"
   xmlns:inkscape="http://www.inkscape.org/namespaces/inkscape"
   inkscape:version="1.0 (4035a4fb49, 2020-05-01)"
   sodipodi:docname="package_fiend_nehal.svg"
   viewBox="0 0 2562 350"
   height="350"
   width="2562"
   id="svg1876"
   version="1.1">
  <metadata
     id="metadata1882">
    <rdf:RDF>
      <cc:Work
         rdf:about="">
        <dc:format>image/svg+xml</dc:format>
        <dc:type
           rdf:resource="http://purl.org/dc/dcmitype/StillImage" />
        <dc:title></dc:title>
      </cc:Work>
    </rdf:RDF>
  </metadata>
  <defs
     id="defs1880" />
  <sodipodi:namedview
     inkscape:current-layer="g1884"
     inkscape:window-maximized="1"
     inkscape:window-y="24"
     inkscape:window-x="0"
     inkscape:cy="175"
     inkscape:cx="1255.9611"
     inkscape:zoom="0.32181362"
     showgrid="false"
     id="namedview1878"
     inkscape:window-height="1027"
     inkscape:window-width="1920"
     inkscape:pageshadow="2"
     inkscape:pageopacity="0"
     guidetolerance="10"
     gridtolerance="10"
     objecttolerance="10"
     borderopacity="1"
     bordercolor="#666666"
     pagecolor="#ffffff" />
  <g
     id="g1884"
     inkscape:label="Image"
     inkscape:groupmode="layer">
    <g
       style="fill:#000000;fill-opacity:1"
       transform="matrix(0.98720653,0,0,0.98720653,22.153002,-4.645731)"
       id="g2449">
      <path
         id="path2463"
         d="m 1123.9589,331.84718 c 1.5216,-0.23051 4.0115,-0.23051 5.5331,0 1.5216,0.23049 0.2767,0.41909 -2.7665,0.41909 -3.0432,0 -4.2882,-0.1886 -2.7666,-0.41909 z M 109.03332,254.60142 c 0.002,-7.74633 0.15948,-10.7823 0.35092,-6.7466 0.19145,4.0357 0.19016,10.3736 -0.003,14.08424 -0.19285,3.71063 -0.34948,0.40869 -0.34791,-7.33764 z m 696.15763,1.00602 c 0.002,-7.19302 0.162,-10.00362 0.35609,-6.24577 0.19409,3.75785 0.19265,9.64305 -0.003,13.07822 -0.19586,3.43517 -0.35466,0.36057 -0.35289,-6.83245 z m 1309.83395,0 c 0,-7.19302 0.1621,-10.00362 0.3561,-6.24577 0.1941,3.75785 0.1927,9.64305 0,13.07822 -0.1958,3.43517 -0.3546,0.36057 -0.3529,-6.83245 z m -1013.0287,-17.6053 c 0,-10.78953 0.148,-15.20343 0.3288,-9.80866 0.1809,5.39476 0.1809,14.22256 0,19.61733 -0.1808,5.39476 -0.3288,0.98086 -0.3288,-9.80867 z m 529.2017,-37.22262 c 0,-21.85572 0.1329,-30.7967 0.2954,-19.86884 0.1623,10.92786 0.1623,28.80981 0,39.73767 -0.1625,10.92786 -0.2954,1.98688 -0.2954,-19.86883 z m -32.2112,1.00601 c 0,-14.66269 0.1407,-20.66107 0.3126,-13.32972 0.1719,7.33135 0.1719,19.3281 0,26.65945 -0.1719,7.33135 -0.3126,1.33297 -0.3126,-13.32973 z m -766.79077,17.10229 c 0,-1.93658 0.20704,-2.72882 0.46008,-1.76053 0.25303,0.96829 0.25303,2.55277 0,3.52106 -0.25304,0.96829 -0.46008,0.17605 -0.46008,-1.76053 z m 351.87247,-19.49415 c 0,-0.2089 0.7923,-1.00114 1.7606,-1.76053 1.5956,-1.25136 1.6311,-1.21577 0.3798,0.37983 -1.3142,1.67577 -2.1404,2.20869 -2.1404,1.3807 z m -61.5556,-2.31943 c 0.7262,-0.2906 1.5939,-0.25487 1.9282,0.0794 0.3343,0.33429 -0.2599,0.57206 -1.3204,0.52838 -1.172,-0.0483 -1.4103,-0.28666 -0.6078,-0.6078 z m -827.45164,-4.08929 c 7.64108,-0.17113 19.86419,-0.17068 27.16246,9.7e-4 7.29826,0.17166 1.04647,0.31167 -13.89288,0.31112 -14.93936,-5.3e-4 -20.91067,-0.14098 -13.26958,-0.31209 z m 616.1252,5.5e-4 c 7.33135,-0.17189 19.3281,-0.17189 26.65945,0 7.33135,0.17189 1.33297,0.31253 -13.32972,0.31253 -14.6627,0 -20.66107,-0.14064 -13.32973,-0.31253 z m 345.39464,-5.87104 c 0.048,-1.17196 0.2868,-1.41034 0.6079,-0.60781 0.2906,0.72621 0.2549,1.5939 -0.08,1.9282 -0.3343,0.33429 -0.5721,-0.25989 -0.5285,-1.32039 z m 0,-11.06619 c 0.048,-1.17196 0.2868,-1.41034 0.6079,-0.60781 0.2906,0.72622 0.2549,1.59391 -0.08,1.92821 -0.3343,0.33429 -0.5721,-0.2599 -0.5285,-1.3204 z M 366.4304,160.03583 c 0.0112,-2.21324 0.21719,-3.00019 0.45782,-1.7488 0.24063,1.25139 0.2315,3.06222 -0.0203,4.02407 -0.25179,0.96184 -0.44868,-0.0621 -0.43752,-2.27527 z m -265.57151,-8.24229 c 0.97883,-0.25506 2.33695,-0.23829 3.01806,0.0373 0.6811,0.27557 -0.11975,0.48426 -1.77968,0.46376 -1.65993,-0.0205 -2.2172,-0.24597 -1.23838,-0.50104 z m 1953.33801,-44.3221 -2.4389,-2.76654 2.7666,2.43889 c 1.5216,1.34141 2.7665,2.58635 2.7665,2.76655 0,0.789 -0.8147,0.14686 -3.0942,-2.4389 z M 349.95211,106.46543 c -1.25135,-1.5956 -1.21577,-1.63119 0.37983,-0.37983 0.96829,0.75939 1.76053,1.55163 1.76053,1.76052 0,0.828 -0.82613,0.29508 -2.14036,-1.38069 z m -163.6563,-1.76053 c 0.0205,-1.65993 0.24597,-2.2172 0.50103,-1.23838 0.25507,0.97882 0.2383,2.33695 -0.0373,3.01805 -0.27558,0.68111 -0.48427,-0.11974 -0.46376,-1.77967 z M 1119.9487,88.389736 c 1.5292,-0.231238 3.7927,-0.225058 5.03,0.01373 1.2374,0.23879 -0.014,0.427984 -2.7803,0.420432 -2.7665,-0.0075 -3.7789,-0.202927 -2.2497,-0.434164 z m 692.7519,-37.255241 c -1.2512,-1.595599 -1.2157,-1.631182 0.3799,-0.379827 0.9683,0.759386 1.7605,1.551625 1.7605,1.76053 0,0.827986 -0.8261,0.295068 -2.1404,-1.380703 z m -6.8343,-16.934618 c 0.048,-1.171953 0.2867,-1.410335 0.6078,-0.607802 0.2906,0.726218 0.2549,1.593908 -0.079,1.928199 -0.3343,0.33429 -0.5721,-0.259888 -0.5284,-1.320397 z"
         style="fill:#000000;fill-opacity:1;stroke-width:1.00602" />
      <path
         id="path2461"
         d="m 1118.4258,331.90147 c 0.6917,-0.27908 1.8235,-0.27908 2.5151,0 0.6916,0.27908 0.1257,0.50742 -1.2575,0.50742 -1.3833,0 -1.9492,-0.22834 -1.2576,-0.50742 z m 14.1472,-0.0209 c 0.7262,-0.2906 1.5939,-0.25487 1.9282,0.0794 0.3343,0.33429 -0.26,0.57206 -1.3204,0.52838 -1.172,-0.0483 -1.4103,-0.28665 -0.6078,-0.6078 z m -59.7171,-86.33327 c 3e-4,-20.47245 0.1344,-28.70475 0.2981,-18.29402 0.1636,10.41075 0.1634,27.16093 -6e-4,37.22263 -0.164,10.06171 -0.2979,1.54383 -0.2975,-18.92861 z m 487.8598,9.05415 c 0,-7.74633 0.1595,-10.7823 0.3509,-6.7466 0.1915,4.0357 0.1902,10.3736 0,14.08424 -0.193,3.71063 -0.3496,0.40869 -0.348,-7.33764 z m 257.6162,-72.93623 c 0,-34.02852 0.1266,-47.94928 0.2812,-30.93502 0.1546,17.01426 0.1546,44.85578 0,61.87004 -0.1546,17.01427 -0.2812,3.09351 -0.2812,-30.93502 z m -219.4625,52.31288 c 0,-3.59651 0.1826,-5.06781 0.4058,-3.26955 0.2231,1.79825 0.2231,4.74085 0,6.53911 -0.2232,1.79825 -0.4058,0.32695 -0.4058,-3.26956 z M 366.63142,199.7735 c 0,-20.19579 0.13425,-28.45771 0.29834,-18.35981 0.16409,10.09789 0.16409,26.62172 0,36.71962 -0.16409,10.09789 -0.29834,1.83598 -0.29834,-18.35981 z m 752.86328,-2.69926 c 0.7263,-0.2906 1.594,-0.25487 1.9283,0.0794 0.3343,0.33429 -0.26,0.57206 -1.3204,0.52838 -1.172,-0.0483 -1.4104,-0.28666 -0.6079,-0.6078 z m 6.0361,0 c 0.7263,-0.2906 1.594,-0.25487 1.9283,0.0794 0.3343,0.33429 -0.26,0.57206 -1.3204,0.52838 -1.172,-0.0483 -1.4104,-0.28666 -0.6079,-0.6078 z m -846.06017,-4.02406 c 0.72621,-0.29061 1.59391,-0.25488 1.9282,0.0794 0.33429,0.33429 -0.2599,0.57206 -1.3204,0.52838 -1.17196,-0.0483 -1.41033,-0.28665 -0.6078,-0.60779 z m 615.61946,0.0209 c 0.69164,-0.27908 1.82341,-0.27908 2.51505,0 0.69163,0.27908 0.12575,0.50743 -1.25753,0.50743 -1.38327,0 -1.94915,-0.22835 -1.25752,-0.50743 z m 361.68561,-11.40591 c 0,-2.48989 0.1962,-3.50848 0.4359,-2.26353 0.2398,1.24494 0.2398,3.28213 0,4.52707 -0.2397,1.24495 -0.4359,0.22636 -0.4359,-2.26354 z"
         style="fill:#000000;fill-opacity:1;stroke-width:1.00602" />
      <path
         id="path2459"
         d="m 2198.5243,255.60744 c 0,-7.19302 0.1621,-10.00362 0.3562,-6.24577 0.194,3.75785 0.1926,9.64305 0,13.07822 -0.1959,3.43517 -0.3547,0.36057 -0.353,-6.83245 z M 639.29108,143.43655 c 0,-55.054278 0.12173,-77.576482 0.27051,-50.049343 0.14877,27.527143 0.14877,72.571543 0,100.098683 -0.14878,27.52714 -0.27051,5.00494 -0.27051,-50.04934 z m 1510.01872,41.7497 c -1e-4,-32.09194 0.127,-45.36596 0.2827,-29.49781 0.1555,15.86813 0.1556,42.12518 2e-4,58.34898 -0.1555,16.22379 -0.2827,3.24077 -0.2829,-28.85117 z m 31.186,1.00602 c 2e-4,-31.53863 0.1277,-44.29539 0.2834,-28.34835 0.1557,15.94704 0.1556,41.75137 -3e-4,57.34297 -0.1558,15.59159 -0.2832,2.54401 -0.2831,-28.99462 z M 28.637016,149.47265 c 0,-50.074492 0.122519,-70.559512 0.272266,-45.52227 0.149747,25.03725 0.149747,66.00729 0,91.04454 -0.149747,25.03724 -0.272266,4.55222 -0.272266,-45.52227 z m 32.156282,60.86403 c -4.5e-4,-16.59928 0.137372,-23.53105 0.306272,-15.40394 0.168902,8.12711 0.16927,21.70834 8.19e-4,30.1805 -0.168449,8.47218 -0.306641,1.82272 -0.307091,-14.77656 z M 424.72181,185.18625 c 0.0205,-1.65993 0.24597,-2.2172 0.50104,-1.23837 0.25506,0.97882 0.23829,2.33694 -0.0373,3.01805 -0.27557,0.6811 -0.48426,-0.11975 -0.46376,-1.77968 z m 32.15526,-0.50301 c 0,-1.38327 0.22834,-1.94915 0.50742,-1.25752 0.27908,0.69164 0.27908,1.82341 0,2.51505 -0.27908,0.69163 -0.50742,0.12575 -0.50742,-1.25753 z m -32.15526,-6.53911 c 0.0205,-1.65992 0.24597,-2.2172 0.50104,-1.23837 0.25506,0.97882 0.23829,2.33694 -0.0373,3.01805 -0.27557,0.6811 -0.48426,-0.11975 -0.46376,-1.77968 z m 32.15526,0.50301 c 0,-1.38327 0.22834,-1.94916 0.50742,-1.25752 0.27908,0.69164 0.27908,1.82341 0,2.51504 -0.27908,0.69164 -0.50742,0.12576 -0.50742,-1.25752 z m 934.51023,-15.67709 c 0.048,-1.17196 0.2867,-1.41034 0.6078,-0.60781 0.2907,0.72622 0.255,1.59391 -0.079,1.92821 -0.3343,0.33429 -0.5722,-0.2599 -0.5285,-1.3204 z m 913.58,-8.97032 c 0.02,-1.65993 0.246,-2.2172 0.5011,-1.23838 0.2551,0.97883 0.2384,2.33695 -0.037,3.01805 -0.2755,0.68111 -0.4842,-0.11974 -0.4638,-1.77967 z m -1102.7112,-5.11392 c 0.048,-1.17196 0.2867,-1.41033 0.6079,-0.6078 0.2906,0.72621 0.2549,1.5939 -0.08,1.9282 -0.3343,0.33429 -0.5721,-0.2599 -0.5285,-1.3204 z m -141.4247,-38.64782 c 1.0015,-1.10662 2.0472,-2.01203 2.3239,-2.01203 0.2766,0 -0.3164,0.90541 -1.3179,2.01203 -1.0015,1.10662 -2.0472,2.01203 -2.3239,2.01203 -0.2767,0 0.3164,-0.90541 1.3179,-2.01203 z M 167.86305,51.134495 c -1.25135,-1.595599 -1.21577,-1.631182 0.37983,-0.379827 1.67578,1.31423 2.20869,2.140357 1.3807,2.140357 -0.2089,0 -1.00114,-0.792239 -1.76053,-1.76053 z"
         style="fill:#000000;fill-opacity:1;stroke-width:1.00602" />
      <path
         id="path2457"
         d="m 1199.0303,272.45822 c -1.2513,-1.5956 -1.2157,-1.63118 0.3799,-0.37983 1.6757,1.31423 2.2087,2.14036 1.3807,2.14036 -0.2089,0 -1.0011,-0.79224 -1.7606,-1.76053 z m 586.018,-16.34777 c 0,-6.91637 0.1606,-9.74579 0.3571,-6.28761 0.1965,3.45818 0.1965,9.11703 0,12.57521 -0.1965,3.45819 -0.3571,0.62876 -0.3571,-6.2876 z m 470.8159,0 c 0,-6.91637 0.1606,-9.74579 0.3571,-6.28761 0.1965,3.45818 0.1965,9.11703 0,12.57521 -0.1965,3.45819 -0.3571,0.62876 -0.3571,-6.2876 z M 286.44987,248.40206 c 0.69163,-0.27908 1.8234,-0.27908 2.51504,0 0.69164,0.27908 0.12575,0.50743 -1.25752,0.50743 -1.38327,0 -1.94916,-0.22835 -1.25752,-0.50743 z m 225.34778,0 c 0.69164,-0.27908 1.82341,-0.27908 2.51505,0 0.69163,0.27908 0.12575,0.50743 -1.25752,0.50743 -1.38328,0 -1.94916,-0.22835 -1.25753,-0.50743 z m 390.85671,-0.0309 c 0.97883,-0.25507 2.33695,-0.2383 3.01806,0.0373 0.6811,0.27558 -0.11975,0.48427 -1.77968,0.46377 -1.65993,-0.0205 -2.2172,-0.24598 -1.23838,-0.50104 z m 442.18814,0.0101 c 0.7263,-0.29061 1.594,-0.25488 1.9283,0.0794 0.3343,0.33429 -0.26,0.57207 -1.3204,0.52838 -1.1721,-0.0483 -1.4104,-0.28665 -0.6079,-0.60779 z m 654.917,0 c 0.7263,-0.29061 1.594,-0.25488 1.9283,0.0794 0.3343,0.33429 -0.26,0.57207 -1.3204,0.52838 -1.172,-0.0483 -1.4104,-0.28665 -0.6079,-0.60779 z m 452.6448,0.0209 c 0.6916,-0.27907 1.8234,-0.27907 2.515,0 0.6916,0.27908 0.1258,0.50743 -1.2575,0.50743 -1.3833,0 -1.9492,-0.22835 -1.2575,-0.50743 z m -178.3606,-45.61061 c 0,-22.40903 0.1325,-31.57636 0.2944,-20.37184 0.1618,11.20451 0.1618,29.53917 0,40.74368 -0.1619,11.20452 -0.2944,2.03719 -0.2944,-20.37184 z m 31.1892,-3.01805 c 0,-24.06896 0.1313,-33.91535 0.2919,-21.88087 0.1604,12.03448 0.1604,31.72726 0,43.76174 -0.1606,12.03447 -0.2919,2.18808 -0.2919,-21.88087 z M 0.74106838,240.27064 c 5.11811102,-0.18258 13.49320162,-0.18258 18.61131262,0 5.118111,0.18258 0.930566,0.33198 -9.305656,0.33198 -10.23622225,0 -14.4237676,-0.1494 -9.30565662,-0.33198 z m 72.49091062,-0.002 c 6.80977,-0.1743 17.674752,-0.17377 24.144407,0.001 6.469654,0.17496 0.898021,0.31757 -12.381402,0.31692 -13.279423,-6.6e-4 -18.572775,-0.14381 -11.763005,-0.31811 z m 1497.450721,0.001 c 5.4235,-0.18123 14.0249,-0.18044 19.1143,0.002 5.0894,0.1822 0.652,0.33048 -9.8609,0.32952 -10.5129,-9.7e-4 -14.6769,-0.15005 -9.2534,-0.33128 z m 72.884,-8.7e-4 c 6.778,-0.17405 17.8693,-0.17405 24.6474,0 6.778,0.17405 1.2324,0.31645 -12.3237,0.31645 -13.5561,0 -19.1018,-0.1424 -12.3237,-0.31645 z m 772.7441,-6.03912 c -1.2513,-1.5956 -1.2158,-1.63119 0.3799,-0.37983 0.9682,0.75939 1.7605,1.55163 1.7605,1.76053 0,0.82799 -0.8262,0.29507 -2.1404,-1.3807 z m 113.2868,-102.36229 c 0,-57.544164 0.1215,-80.937179 0.2698,-51.984472 0.1483,28.952702 0.1482,76.034302 0,104.625762 -0.1484,28.59146 -0.2699,4.90288 -0.2698,-52.64129 z M 335.4129,213.35473 c -8.9e-4,-11.06619 0.1461,-15.73053 0.32663,-10.36519 0.18053,5.36533 0.18126,14.41949 0.002,20.12034 -0.17965,5.70085 -0.32736,1.31103 -0.32825,-9.75515 z m 2162.9826,-34.20458 c 2e-4,-29.8787 0.1284,-41.95668 0.2849,-26.83995 0.1567,15.11674 0.1565,39.56295 -2e-4,54.32492 -0.1567,14.76197 -0.2849,2.39373 -0.2847,-27.48497 z m -2041.59785,8.97032 c 0.0483,-1.17196 0.28666,-1.41033 0.6078,-0.6078 0.29061,0.72621 0.25487,1.5939 -0.0794,1.9282 -0.33429,0.33429 -0.57206,-0.2599 -0.52838,-1.3204 z m 865.41965,0.83874 c 18.161,-0.15377 47.587,-0.15368 65.3911,2e-4 17.8041,0.15388 2.945,0.27968 -33.0201,0.27957 -35.9651,-1.1e-4 -50.532,-0.12601 -32.371,-0.27977 z m 655.347,10e-5 c 17.8442,-0.15393 47.0438,-0.15393 64.8881,0 17.8442,0.15393 3.2444,0.27988 -32.4441,0.27988 -35.6884,0 -50.2882,-0.12595 -32.444,-0.27988 z M 227.34638,187.32146 c 0,-0.2089 0.79223,-1.00113 1.76052,-1.76053 1.59561,-1.25135 1.63119,-1.21577 0.37984,0.37984 -1.31423,1.67577 -2.14036,2.20869 -2.14036,1.38069 z m 229.45127,-12.27921 c 0.0483,-1.17196 0.28666,-1.41033 0.6078,-0.6078 0.29061,0.72621 0.25487,1.5939 -0.0794,1.9282 -0.33429,0.33429 -0.57206,-0.2599 -0.52838,-1.3204 z M 335.3203,161.04185 c 0.004,-3.87317 0.18629,-5.33437 0.40407,-3.24712 0.21778,2.08725 0.21413,5.2562 -0.008,7.04211 -0.22224,1.78593 -0.40043,0.0782 -0.39596,-3.79499 z m 1362.0354,-12.81298 -0.2186,-13.81898 -32.9471,-0.26525 -32.947,-0.26525 V 96.153753 58.428118 l 43.2587,-0.01659 43.2587,-0.01659 -43.0072,0.278893 -43.0072,0.278893 v 37.211825 37.211831 h 32.7271 c 25.9622,0 32.8311,0.27094 33.2301,1.31073 0.2766,0.72089 0.3608,7.17197 0.1871,14.33574 l -0.3159,13.02501 z m -654.0502,10.71711 c 0.048,-1.17196 0.2867,-1.41033 0.6078,-0.6078 0.2906,0.72621 0.2549,1.5939 -0.079,1.9282 -0.3343,0.33429 -0.5721,-0.2599 -0.5284,-1.3204 z m 159.125,-4.94625 c 0.011,-2.21324 0.2172,-3.0002 0.4578,-1.7488 0.2406,1.25139 0.2315,3.06222 -0.02,4.02407 -0.2518,0.96184 -0.4487,-0.0621 -0.4375,-2.27527 z m -30.3549,-0.0838 c 0.048,-1.17196 0.2867,-1.41034 0.6079,-0.60781 0.2906,0.72621 0.2549,1.5939 -0.08,1.9282 -0.3343,0.33429 -0.5721,-0.25989 -0.5285,-1.32039 z M 982.01789,152.4907 c 0,-1.38327 0.22835,-1.94916 0.50743,-1.25752 0.27907,0.69164 0.27907,1.82341 0,2.51504 -0.27908,0.69164 -0.50743,0.12576 -0.50743,-1.25752 z m -646.86887,-1.00601 c 0,-1.38328 0.22835,-1.94916 0.50743,-1.25753 0.27908,0.69164 0.27908,1.82341 0,2.51505 -0.27908,0.69163 -0.50743,0.12575 -0.50743,-1.25752 z m 708.15648,0.41917 c 0.048,-1.17196 0.2867,-1.41033 0.6078,-0.6078 0.2906,0.72621 0.2549,1.5939 -0.079,1.9282 -0.3343,0.33429 -0.5721,-0.25989 -0.5284,-1.3204 z m 1371.6246,-21.54553 c 1.0015,-1.10662 2.0473,-2.01203 2.3239,-2.01203 0.2767,0 -0.3164,0.90541 -1.3179,2.01203 -1.0014,1.10662 -2.0472,2.01203 -2.3239,2.01203 -0.2766,0 0.3164,-0.90541 1.3179,-2.01203 z m -629.8818,-23.13839 c 0,-6.91637 0.1606,-9.74579 0.3571,-6.28761 0.1965,3.45819 0.1965,9.11703 0,12.57522 -0.1965,3.45818 -0.3571,0.62876 -0.3571,-6.28761 z m -1491.49344,7.36091 c 0.72622,-0.2906 1.59392,-0.25487 1.92821,0.0794 0.33428,0.3343 -0.2599,0.57206 -1.3204,0.52838 -1.17196,-0.0483 -1.41034,-0.28665 -0.60781,-0.6078 z m 219.24881,0.0209 c 0.69164,-0.27908 1.82341,-0.27908 2.51504,0 0.69164,0.27908 0.12576,0.50742 -1.25752,0.50742 -1.38327,0 -1.94916,-0.22834 -1.25752,-0.50742 z m 397.43955,-0.0209 c 0.72622,-0.2906 1.59392,-0.25487 1.92821,0.0794 0.33428,0.3343 -0.2599,0.57206 -1.3204,0.52838 -1.17196,-0.0483 -1.41034,-0.28665 -0.60781,-0.6078 z m 1320.90018,0 c 0.7263,-0.2906 1.5939,-0.25487 1.9282,0.0794 0.3343,0.3343 -0.2599,0.57206 -1.3204,0.52838 -1.172,-0.0483 -1.4103,-0.28665 -0.6078,-0.6078 z m 222.3297,0 c 0.7263,-0.2906 1.594,-0.25487 1.9283,0.0794 0.3343,0.3343 -0.26,0.57206 -1.3204,0.52838 -1.172,-0.0483 -1.4104,-0.28665 -0.6079,-0.6078 z m 44.8927,-43.57752 c 0,-14.662697 0.1407,-20.661073 0.3126,-13.329725 0.1719,7.331349 0.1719,19.328101 0,26.659449 -0.1719,7.331349 -0.3126,1.332973 -0.3126,-13.329724 z M 0.74106838,58.181575 c 5.11811102,-0.182583 13.49320162,-0.182583 18.61131262,0 5.118111,0.182583 0.930566,0.33197 -9.305656,0.33197 -10.23622225,0 -14.4237676,-0.149387 -9.30565662,-0.33197 z M 71.162251,58.180757 c 5.671421,-0.179319 14.951927,-0.179319 20.623347,0 5.67142,0.179321 1.031167,0.326036 -10.311673,0.326036 -11.342841,0 -15.983094,-0.146715 -10.311674,-0.326036 z m 1499.468149,3.82e-4 c 5.3948,-0.180889 14.2226,-0.180889 19.6174,0 5.3947,0.180889 0.9808,0.328889 -9.8087,0.328889 -10.7895,0 -15.2034,-0.148 -9.8087,-0.328889 z"
         style="fill:#000000;fill-opacity:1;stroke-width:1.00602" />
      <path
         id="path2455"
         d="m 688.48979,256.11045 c 0,-6.91637 0.16074,-9.74579 0.35718,-6.28761 0.19645,3.45818 0.19645,9.11703 0,12.57521 -0.19644,3.45819 -0.35718,0.62876 -0.35718,-6.2876 z m 1248.51901,-6.28761 -2.9548,-3.26955 3.2696,2.95476 c 3.0477,2.75425 3.732,3.58435 2.9548,3.58435 -0.1732,0 -1.6445,-1.4713 -3.2696,-3.26956 z M 283.49469,248.38111 c 0.72622,-0.29061 1.59392,-0.25488 1.92821,0.0794 0.33429,0.33429 -0.2599,0.57206 -1.3204,0.52838 -1.17196,-0.0483 -1.41034,-0.28665 -0.60781,-0.60779 z m 7.04212,0 c 0.72622,-0.29061 1.59391,-0.25488 1.9282,0.0794 0.33429,0.33429 -0.25989,0.57206 -1.32039,0.52838 -1.17196,-0.0483 -1.41034,-0.28665 -0.60781,-0.60779 z m 218.30567,0 c 0.72621,-0.29061 1.59391,-0.25488 1.9282,0.0794 0.33429,0.33429 -0.25989,0.57206 -1.3204,0.52838 -1.17195,-0.0483 -1.41033,-0.28665 -0.6078,-0.60779 z m 7.04212,0 c 0.72621,-0.29061 1.59391,-0.25488 1.9282,0.0794 0.33429,0.33429 -0.25989,0.57206 -1.3204,0.52838 -1.17196,-0.0483 -1.41033,-0.28665 -0.6078,-0.60779 z m 391.34057,0 c 0.72622,-0.29061 1.59392,-0.25488 1.9282,0.0794 0.33429,0.33429 -0.25989,0.57206 -1.32039,0.52838 -1.17196,-0.0483 -1.41034,-0.28665 -0.60781,-0.60779 z m 434.59933,0 c 0.7262,-0.29061 1.5939,-0.25488 1.9282,0.0794 0.3343,0.33429 -0.2599,0.57206 -1.3204,0.52838 -1.172,-0.0483 -1.4103,-0.28665 -0.6078,-0.60779 z m 5.9732,0.0209 c 0.6916,-0.27908 1.8234,-0.27908 2.515,0 0.6917,0.27908 0.1258,0.50743 -1.2575,0.50743 -1.3833,0 -1.9491,-0.22835 -1.2575,-0.50743 z m 648.9438,-0.0209 c 0.7262,-0.29061 1.5939,-0.25488 1.9282,0.0794 0.3343,0.33429 -0.2599,0.57206 -1.3204,0.52838 -1.172,-0.0483 -1.4103,-0.28665 -0.6078,-0.60779 z m 5.9732,0.0209 c 0.6916,-0.27908 1.8234,-0.27908 2.515,0 0.6917,0.27908 0.1258,0.50743 -1.2575,0.50743 -1.3833,0 -1.9491,-0.22835 -1.2575,-0.50743 z m 453.7765,-0.0209 c 0.7262,-0.29061 1.5939,-0.25488 1.9282,0.0794 0.3343,0.33429 -0.2599,0.57206 -1.3204,0.52838 -1.172,-0.0483 -1.4103,-0.28665 -0.6078,-0.60779 z M 670.43109,217.8818 c 0,-14.10938 0.14149,-19.88141 0.31443,-12.82671 0.17293,7.05469 0.17293,18.59874 0,25.65343 -0.17294,7.05469 -0.31443,1.28267 -0.31443,-12.82672 z m -454.07148,4.44325 c 0.0483,-1.17196 0.28666,-1.41034 0.6078,-0.60781 0.29061,0.72622 0.25487,1.59391 -0.0794,1.92821 -0.33429,0.33428 -0.57206,-0.2599 -0.52838,-1.3204 z m 647.9543,-2.43121 c 0,-1.38328 0.22835,-1.94916 0.50743,-1.25752 0.27908,0.69163 0.27908,1.8234 0,2.51504 -0.27908,0.69164 -0.50743,0.12575 -0.50743,-1.25752 z m -647.9543,-3.60489 c 0.0483,-1.17196 0.28666,-1.41034 0.6078,-0.60781 0.29061,0.72621 0.25487,1.5939 -0.0794,1.9282 -0.33429,0.33429 -0.57206,-0.25989 -0.52838,-1.32039 z m 1858.11319,-35.2106 c 0.048,-1.17196 0.2867,-1.41033 0.6078,-0.6078 0.2907,0.72621 0.2549,1.5939 -0.079,1.9282 -0.3343,0.33429 -0.5721,-0.25989 -0.5284,-1.3204 z M 107.44174,179.97196 c 0.72621,-0.29061 1.5939,-0.25488 1.9282,0.0794 0.33429,0.33429 -0.2599,0.57206 -1.3204,0.52838 -1.17196,-0.0483 -1.41033,-0.28665 -0.6078,-0.60779 z m 563.0285,-82.81219 c 0,-39.008307 0.12495,-54.966251 0.27766,-35.462097 0.15272,19.504153 0.15272,51.420037 0,70.924197 -0.15271,19.50415 -0.27766,3.54621 -0.27766,-35.4621 z m 1603.31056,62.87606 c 0.02,-1.65993 0.246,-2.2172 0.5011,-1.23838 0.255,0.97883 0.2383,2.33695 -0.037,3.01805 -0.2755,0.68111 -0.4842,-0.11974 -0.4638,-1.77967 z m -1101.7052,-3.10188 c 0.048,-1.17196 0.2867,-1.41034 0.6079,-0.60781 0.2906,0.72622 0.2549,1.5939 -0.08,1.9282 -0.3343,0.33429 -0.5721,-0.25989 -0.5285,-1.32039 z m -190.13712,-1.00602 c 0.0483,-1.17196 0.28665,-1.41034 0.60779,-0.60781 0.29061,0.72622 0.25488,1.59391 -0.0794,1.92821 -0.33429,0.33429 -0.57207,-0.2599 -0.52838,-1.3204 z m 61.44642,-0.41918 c 0,-1.38327 0.2284,-1.94915 0.5075,-1.25752 0.279,0.69164 0.279,1.82341 0,2.51504 -0.2791,0.69164 -0.5075,0.12576 -0.5075,-1.25752 z m 30.1011,-1.59285 c 0.048,-1.17196 0.2867,-1.41034 0.6078,-0.60781 0.2906,0.72621 0.2549,1.5939 -0.08,1.9282 -0.3343,0.33429 -0.5721,-0.25989 -0.5284,-1.32039 z m 98.5896,-3.01805 c 0.048,-1.17196 0.2867,-1.41034 0.6079,-0.60781 0.2906,0.72621 0.2549,1.5939 -0.08,1.9282 -0.3343,0.33429 -0.5721,-0.25989 -0.5285,-1.32039 z m 132.7149,-20.91935 c 0,-0.2089 0.7922,-1.00114 1.7605,-1.76053 1.5956,-1.25136 1.6312,-1.21577 0.3799,0.37983 -1.3143,1.67577 -2.1404,2.20869 -2.1404,1.3807 z m -221.3237,-5.03009 c 0,-0.2089 0.7922,-1.00113 1.7605,-1.76053 1.5956,-1.25135 1.6311,-1.21577 0.3799,0.37983 -1.3143,1.67578 -2.1404,2.2087 -2.1404,1.3807 z m 77.3349,-1.3807 c -1.2513,-1.5956 -1.2158,-1.63118 0.3799,-0.37983 1.6757,1.31423 2.2087,2.14036 1.3806,2.14036 -0.2088,0 -1.0011,-0.79223 -1.7605,-1.76053 z m -871.81765,-8.99679 c 0.97883,-0.25507 2.33695,-0.2383 3.01806,0.0372 0.6811,0.27558 -0.11975,0.48426 -1.77968,0.46376 -1.65993,-0.0205 -2.2172,-0.24597 -1.23838,-0.50103 z m 7.52599,0.0309 c 0.69163,-0.27908 1.8234,-0.27908 2.51504,0 0.69164,0.27908 0.12575,0.50743 -1.25752,0.50743 -1.38327,0 -1.94916,-0.22835 -1.25752,-0.50743 z m 213.33846,-0.0209 c 0.72621,-0.29061 1.59391,-0.25488 1.9282,0.0794 0.33429,0.3343 -0.2599,0.57206 -1.3204,0.52838 -1.17196,-0.0483 -1.41033,-0.28665 -0.6078,-0.6078 z m 6.97924,0.0209 c 0.69164,-0.27908 1.8234,-0.27908 2.51504,0 0.69164,0.27908 0.12575,0.50743 -1.25752,0.50743 -1.38327,0 -1.94916,-0.22835 -1.25752,-0.50743 z m 388.84468,-0.0309 c 0.97882,-0.25507 2.33694,-0.2383 3.01805,0.0372 0.6811,0.27558 -0.11975,0.48426 -1.77968,0.46376 -1.65993,-0.0205 -2.2172,-0.24597 -1.23837,-0.50103 z m 7.52598,0.0309 c 0.69163,-0.27908 1.8234,-0.27908 2.51504,0 0.69164,0.27908 0.12575,0.50743 -1.25752,0.50743 -1.38327,0 -1.94916,-0.22835 -1.25752,-0.50743 z m 428.6261,-0.0209 c 0.7262,-0.29061 1.5939,-0.25488 1.9282,0.0794 0.3343,0.3343 -0.2599,0.57206 -1.3204,0.52838 -1.172,-0.0483 -1.4103,-0.28665 -0.6078,-0.6078 z m 5.0301,0 c 0.7262,-0.29061 1.5939,-0.25488 1.9282,0.0794 0.3343,0.3343 -0.26,0.57206 -1.3204,0.52838 -1.172,-0.0483 -1.4103,-0.28665 -0.6078,-0.6078 z m 649.824,0.0209 c 0.6916,-0.27908 1.8234,-0.27908 2.515,0 0.6917,0.27908 0.1258,0.50743 -1.2575,0.50743 -1.3833,0 -1.9491,-0.22835 -1.2575,-0.50743 z m 5.093,-0.0209 c 0.7262,-0.29061 1.5939,-0.25488 1.9282,0.0794 0.3343,0.3343 -0.26,0.57206 -1.3204,0.52838 -1.172,-0.0483 -1.4103,-0.28665 -0.6078,-0.6078 z m 225.2849,0.0209 c 0.6916,-0.27908 1.8234,-0.27908 2.515,0 0.6916,0.27908 0.1258,0.50743 -1.2575,0.50743 -1.3833,0 -1.9492,-0.22835 -1.2575,-0.50743 z m 7.105,-0.0209 c 0.7262,-0.29061 1.5939,-0.25488 1.9282,0.0794 0.3343,0.3343 -0.26,0.57206 -1.3204,0.52838 -1.172,-0.0483 -1.4103,-0.28665 -0.6078,-0.6078 z m 216.2936,0 c 0.7262,-0.29061 1.5939,-0.25488 1.9282,0.0794 0.3343,0.3343 -0.2599,0.57206 -1.3204,0.52838 -1.172,-0.0483 -1.4103,-0.28665 -0.6078,-0.6078 z m 5.9732,0.0209 c 0.6917,-0.27908 1.8234,-0.27908 2.5151,0 0.6916,0.27908 0.1257,0.50743 -1.2576,0.50743 -1.3832,0 -1.9491,-0.22835 -1.2575,-0.50743 z M 152.16911,105.20791 c 0,-2.4899 0.19619,-3.50849 0.43597,-2.26354 0.2398,1.24494 0.2398,3.28213 0,4.52707 -0.23978,1.24495 -0.43597,0.22636 -0.43597,-2.26353 z m 814.0011,1.76053 -1.91645,-2.26354 2.26353,1.91645 c 1.24495,1.05404 2.26354,2.07264 2.26354,2.26354 0,0.80506 -0.80963,0.21071 -2.61062,-1.91645 z M 102.34878,58.26486 c 0.69163,-0.279081 1.8234,-0.279081 2.51504,0 0.69163,0.279083 0.12575,0.507421 -1.25752,0.507421 -1.38328,0 -1.94916,-0.228338 -1.25752,-0.507421 z m 5.09296,-27.183415 c 0.72621,-0.290609 1.5939,-0.254869 1.9282,0.07943 0.33429,0.334291 -0.2599,0.572062 -1.3204,0.52838 -1.17196,-0.04827 -1.41033,-0.286656 -0.6078,-0.607802 z"
         style="fill:#000000;fill-opacity:1;stroke-width:1.00602" />
      <path
         id="path2453"
         d="m 1117.942,357.021 c 0.9788,-0.25507 2.3369,-0.2383 3.018,0.0373 0.6812,0.27558 -0.1197,0.48427 -1.7796,0.46377 -1.66,-0.0205 -2.2172,-0.24598 -1.2384,-0.50104 z m 13.0782,0 c 0.9788,-0.25507 2.3369,-0.2383 3.018,0.0373 0.6812,0.27558 -0.1197,0.48427 -1.7796,0.46377 -1.66,-0.0205 -2.2172,-0.24598 -1.2384,-0.50104 z m -40.7628,-75.50701 c 9.5446,-0.16534 25.163,-0.16534 34.7076,0 9.5445,0.16535 1.7353,0.30063 -17.3538,0.30063 -19.0892,0 -26.8984,-0.13528 -17.3538,-0.30063 z m -809.78076,-7.98246 c 0.72622,-0.29061 1.59392,-0.25487 1.92821,0.0794 0.33428,0.33429 -0.2599,0.57206 -1.3204,0.52838 -1.17196,-0.0483 -1.41034,-0.28666 -0.60781,-0.6078 z m 10.06017,0 c 0.72622,-0.29061 1.59391,-0.25487 1.9282,0.0794 0.33429,0.33429 -0.25989,0.57206 -1.32039,0.52838 -1.17196,-0.0483 -1.41034,-0.28666 -0.60781,-0.6078 z m 216.29364,0 c 0.72621,-0.29061 1.59391,-0.25487 1.9282,0.0794 0.33429,0.33429 -0.2599,0.57206 -1.3204,0.52838 -1.17196,-0.0483 -1.41033,-0.28666 -0.6078,-0.6078 z m 10.06016,0 c 0.72622,-0.29061 1.59392,-0.25487 1.92821,0.0794 0.33429,0.33429 -0.2599,0.57206 -1.3204,0.52838 -1.17196,-0.0483 -1.41034,-0.28666 -0.60781,-0.6078 z m 379.2055,0.0209 c 0.69164,-0.27908 1.82341,-0.27908 2.51504,0 0.69164,0.27908 0.12575,0.50742 -1.25752,0.50742 -1.38327,0 -1.94916,-0.22834 -1.25752,-0.50742 z m 454.78249,-0.0209 c 0.7263,-0.29061 1.594,-0.25487 1.9283,0.0794 0.3343,0.33429 -0.26,0.57206 -1.3204,0.52838 -1.172,-0.0483 -1.4104,-0.28666 -0.6079,-0.6078 z m 654.917,0 c 0.7263,-0.29061 1.594,-0.25487 1.9283,0.0794 0.3343,0.33429 -0.26,0.57206 -1.3204,0.52838 -1.172,-0.0483 -1.4104,-0.28666 -0.6079,-0.6078 z M -8.670665,254.60142 c 0.00157,-7.74633 0.1594885,-10.7823 0.3509311,-6.7466 0.1914426,4.0357 0.1901584,10.3736 -0.00285,14.08424 -0.1930118,3.71063 -0.3496466,0.40869 -0.3480771,-7.33764 z m 1160.295065,2.8548 c 0.6916,-0.27908 1.8234,-0.27908 2.515,0 0.6917,0.27908 0.1258,0.50742 -1.2575,0.50742 -1.3832,0 -1.9491,-0.22834 -1.2575,-0.50742 z m -920.85255,-2.60329 -1.91645,-2.26354 2.26354,1.91645 c 2.12716,1.80099 2.72152,2.61062 1.91645,2.61062 -0.1909,0 -1.20949,-1.01859 -2.26354,-2.26353 z m 1051.31995,-5.03009 -2.9548,-3.26955 3.2696,2.95476 c 3.0477,2.75425 3.732,3.58435 2.9548,3.58435 -0.1732,0 -1.6445,-1.4713 -3.2696,-3.26956 z m 1110.1268,-0.50301 -2.4389,-2.76654 2.7666,2.43889 c 1.5216,1.34141 2.7665,2.58635 2.7665,2.76655 0,0.789 -0.8147,0.14686 -3.0942,-2.4389 z M 613.95776,243.28848 c 4.86863,-0.18482 12.56466,-0.18387 17.10229,0.002 4.53764,0.18596 0.55422,0.33718 -8.85204,0.33602 -9.40626,-0.001 -13.11886,-0.15332 -8.25025,-0.33812 z m 61.34799,0.009 c 2.64492,-0.20792 6.71929,-0.2054 9.05415,0.006 2.33488,0.21098 0.17086,0.3811 -4.80893,0.37803 -4.97978,-0.003 -6.89013,-0.17569 -4.24522,-0.3836 z m 103.58939,-0.008 c 4.84146,-0.18442 12.76384,-0.18442 17.6053,0 4.84145,0.18442 0.88026,0.3353 -8.80265,0.3353 -9.68291,0 -13.64411,-0.15088 -8.80265,-0.3353 z m 1014.56806,5.8e-4 c 4.5648,-0.18641 12.0345,-0.18641 16.5993,0 4.5648,0.18641 0.8299,0.33893 -8.2997,0.33893 -9.1296,0 -12.8644,-0.15252 -8.2996,-0.33893 z m 56.0451,-0.50906 c -0.2641,-0.69163 -0.3601,-34.30517 -0.2132,-74.69675 l 0.2669,-73.43924 0.2448,74.16942 0.2448,74.16943 16.8508,0.30186 16.8508,0.30186 -16.8824,0.22548 c -12.7491,0.17027 -16.9998,-0.0824 -17.3625,-1.03206 z m 274.4808,0.50776 c 4.8687,-0.18481 12.5647,-0.18387 17.1023,0.002 4.5377,0.18597 0.5542,0.33718 -8.852,0.33602 -9.4063,-0.001 -13.1189,-0.15331 -8.2503,-0.33812 z m 61.3481,0.009 c 2.6449,-0.20793 6.7192,-0.20541 9.0541,0.006 2.3349,0.21098 0.1708,0.3811 -4.809,0.37803 -4.9797,-0.003 -6.8901,-0.17569 -4.2451,-0.3836 z m 75.4512,0 c 2.6449,-0.20793 6.7193,-0.20541 9.0542,0.006 2.3348,0.21098 0.1708,0.3811 -4.809,0.37803 -4.9798,-0.003 -6.8901,-0.17569 -4.2452,-0.3836 z m 53.3379,-0.009 c 4.8686,-0.18481 12.5647,-0.18387 17.1023,0.002 4.5377,0.18597 0.5542,0.33718 -8.852,0.33602 -9.4063,-0.001 -13.1189,-0.15331 -8.2503,-0.33812 z M 255.38652,238.25365 c -1.25135,-1.59561 -1.21577,-1.63119 0.37983,-0.37984 1.67578,1.31424 2.20869,2.14037 1.3807,2.14037 -0.2089,0 -1.00114,-0.79224 -1.76053,-1.76053 z m 1050.33378,-4.02407 -2.4388,-2.76655 2.7665,2.4389 c 2.5858,2.27952 3.2279,3.0942 2.4389,3.0942 -0.1802,0 -1.4251,-1.24495 -2.7666,-2.76655 z M 982.31701,196.75545 c 0,-21.85572 0.13288,-30.7967 0.2953,-19.86884 0.16241,10.92786 0.16241,28.80981 0,39.73767 -0.16242,10.92786 -0.2953,1.98689 -0.2953,-19.86883 z M 216.35961,219.307 c 0.0483,-1.17196 0.28666,-1.41034 0.6078,-0.60781 0.29061,0.72622 0.25487,1.59391 -0.0794,1.9282 -0.33429,0.33429 -0.57206,-0.25989 -0.52838,-1.32039 z m 897.09899,-0.1004 c 0.7263,-0.29061 1.594,-0.25488 1.9283,0.0794 0.3343,0.33429 -0.26,0.57206 -1.3204,0.52838 -1.172,-0.0483 -1.4104,-0.28665 -0.6079,-0.60779 z m 13.0783,0 c 0.7262,-0.29061 1.5939,-0.25488 1.9282,0.0794 0.3343,0.33429 -0.26,0.57206 -1.3204,0.52838 -1.172,-0.0483 -1.4103,-0.28665 -0.6078,-0.60779 z M 1060.2,199.01899 c -1.2513,-1.59561 -1.2158,-1.63119 0.3799,-0.37984 1.6757,1.31423 2.2087,2.14037 1.3806,2.14037 -0.2088,0 -1.0011,-0.79224 -1.7605,-1.76053 z m 1337.3209,-18.86282 c 0.02,-1.65993 0.246,-2.2172 0.5011,-1.23838 0.255,0.97883 0.2383,2.33695 -0.037,3.01805 -0.2756,0.68111 -0.4842,-0.11974 -0.4638,-1.77967 z m -977.8856,-5.5331 c 0,-1.38327 0.2283,-1.94915 0.5074,-1.25752 0.2791,0.69164 0.2791,1.82341 0,2.51505 -0.2791,0.69163 -0.5074,0.12575 -0.5074,-1.25753 z m 977.7689,0.41918 c 0.048,-1.17196 0.2867,-1.41033 0.6078,-0.6078 0.2907,0.72621 0.255,1.5939 -0.079,1.9282 -0.3343,0.33429 -0.5722,-0.2599 -0.5285,-1.3204 z M 277.39572,167.92071 c 0.69163,-0.27908 1.8234,-0.27908 2.51504,0 0.69163,0.27908 0.12575,0.50742 -1.25752,0.50742 -1.38328,0 -1.94916,-0.22834 -1.25752,-0.50742 z m 402.40676,-0.0833 c 5.11811,-0.18258 13.4932,-0.18258 18.61131,0 5.11811,0.18258 0.93056,0.33198 -9.30566,0.33198 -10.23622,0 -14.42376,-0.1494 -9.30565,-0.33198 z m 213.27558,0.0833 c 0.69164,-0.27908 1.82341,-0.27908 2.51504,0 0.69164,0.27908 0.12575,0.50742 -1.25752,0.50742 -1.38327,0 -1.94916,-0.22834 -1.25752,-0.50742 z m 526.55724,-3.3578 c 0,-1.38328 0.2283,-1.94916 0.5074,-1.25753 0.2791,0.69164 0.2791,1.82341 0,2.51505 -0.2791,0.69163 -0.5074,0.12575 -0.5074,-1.25752 z m -346.1493,-7.62896 c 0.048,-1.17196 0.2867,-1.41034 0.6078,-0.60781 0.2906,0.72622 0.2549,1.5939 -0.08,1.9282 -0.3343,0.33429 -0.5721,-0.25989 -0.5284,-1.32039 z M 60.812014,105.71091 c -2.04e-4,-26.005534 0.129833,-36.788513 0.288972,-23.962173 0.159139,12.826342 0.159306,34.103603 3.7e-4,47.282793 -0.158934,13.1792 -0.289139,2.68492 -0.289342,-23.32062 z M 1073.486,150.89785 c 0.048,-1.17196 0.2867,-1.41034 0.6078,-0.60781 0.2906,0.72621 0.2549,1.5939 -0.08,1.9282 -0.3343,0.33429 -0.5721,-0.25989 -0.5284,-1.32039 z m 886.7245,-21.54554 c 1.0015,-1.10662 2.0472,-2.01203 2.3239,-2.01203 0.2766,0 -0.3164,0.90541 -1.3179,2.01203 -1.0015,1.10662 -2.0472,2.01204 -2.3239,2.01204 -0.2766,0 0.3164,-0.90542 1.3179,-2.01204 z m 73.3436,-3.26955 -1.9164,-2.26354 2.2635,1.91645 c 2.1271,1.80099 2.7215,2.61063 1.9165,2.61063 -0.191,0 -1.2095,-1.0186 -2.2636,-2.26354 z m -1091.5283,-2.01204 -1.91645,-2.26353 2.26354,1.91645 c 1.24494,1.05404 2.26354,2.07263 2.26354,2.26354 0,0.80506 -0.80964,0.21071 -2.61063,-1.91646 z m -177.81623,-4.02406 c 0.25771,-0.41499 7.8976,-0.75452 16.97752,-0.75452 h 16.50894 l 0.33294,-12.3237 0.33293,-12.323712 -0.0505,12.575212 -0.0505,12.57521 -17.25999,0.50301 c -9.493,0.27665 -17.04913,0.16348 -16.79141,-0.2515 z m -44.6327,-0.49303 c 3.20173,-0.20025 8.18152,-0.19839 11.06619,0.004 2.88467,0.20252 0.26508,0.36636 -5.82133,0.36409 -6.0864,-0.002 -8.44659,-0.16797 -5.24486,-0.36821 z m 1073.88633,-0.004 c 4.5648,-0.1864 12.0345,-0.1864 16.5993,0 4.5648,0.18642 0.8299,0.33893 -8.2997,0.33893 -9.1296,0 -12.8644,-0.15251 -8.2996,-0.33893 z m 141.0939,-3.5903 c 0,-0.17314 1.4713,-1.64444 3.2695,-3.26956 l 3.2696,-2.95476 -2.9548,3.26956 c -2.7543,3.04769 -3.5843,3.73197 -3.5843,2.95476 z M 902.19509,114.58085 c 0.72621,-0.2906 1.59391,-0.25487 1.9282,0.0794 0.33429,0.3343 -0.25989,0.57206 -1.3204,0.52838 -1.17196,-0.0483 -1.41033,-0.28665 -0.6078,-0.6078 z m 1102.59451,0 c 0.7263,-0.2906 1.5939,-0.25487 1.9282,0.0794 0.3343,0.3343 -0.2599,0.57206 -1.3204,0.52838 -1.172,-0.0483 -1.4103,-0.28665 -0.6078,-0.6078 z M 151.97453,110.65717 c 0.0483,-1.17196 0.28666,-1.41034 0.6078,-0.60781 0.29061,0.72622 0.25487,1.59391 -0.0794,1.9282 -0.3343,0.33429 -0.57206,-0.25989 -0.52838,-1.32039 z M 286.51274,89.430427 c 0.72622,-0.290609 1.59392,-0.254868 1.92821,0.07943 0.33429,0.334292 -0.2599,0.572063 -1.3204,0.528381 -1.17196,-0.04827 -1.41034,-0.286656 -0.60781,-0.607803 z m 13.07822,0 c 0.72622,-0.290609 1.59392,-0.254868 1.92821,0.07943 0.33429,0.334292 -0.2599,0.572063 -1.3204,0.528381 -1.17196,-0.04827 -1.41034,-0.286656 -0.60781,-0.607803 z m 207.23949,0 c 0.72621,-0.290609 1.59391,-0.254868 1.9282,0.07943 0.33429,0.334292 -0.2599,0.572063 -1.3204,0.528381 -1.17196,-0.04827 -1.41033,-0.286656 -0.6078,-0.607803 z m 13.07822,0 c 0.72621,-0.290609 1.59391,-0.254868 1.9282,0.07943 0.33429,0.334292 -0.2599,0.572063 -1.3204,0.528381 -1.17196,-0.04827 -1.41033,-0.286656 -0.6078,-0.607803 z m 1708.21673,0 c 0.7262,-0.290609 1.5939,-0.254868 1.9282,0.07943 0.3343,0.334292 -0.26,0.572063 -1.3204,0.528381 -1.172,-0.04827 -1.4103,-0.286656 -0.6078,-0.607803 z m 11.0661,0 c 0.7263,-0.290609 1.594,-0.254868 1.9283,0.07943 0.3343,0.334292 -0.26,0.572063 -1.3204,0.528381 -1.172,-0.04827 -1.4104,-0.286656 -0.6079,-0.607803 z m 219.3117,0 c 0.7263,-0.290609 1.594,-0.254868 1.9283,0.07943 0.3343,0.334292 -0.26,0.572063 -1.3204,0.528381 -1.172,-0.04827 -1.4104,-0.286656 -0.6079,-0.607803 z M 140.70059,69.2428 c -1.25135,-1.595599 -1.21577,-1.631182 0.37984,-0.379827 1.67577,1.31423 2.20869,2.140357 1.38069,2.140357 -0.2089,0 -1.00113,-0.792239 -1.76053,-1.76053 z M -8.670665,44.343881 c 0.00157,-7.746331 0.1594885,-10.782301 0.3509311,-6.746601 0.1914426,4.0357 0.1901584,10.373607 -0.00285,14.084237 -0.1930118,3.710631 -0.3496466,0.408694 -0.3480771,-7.337636 z"
         style="fill:#000000;fill-opacity:1;stroke-width:1.00602" />
      <path
         id="path2451"
         d="m 1110.8954,356.67027 c -13.6914,-0.92888 -30.0525,-4.05159 -45.3749,-8.66034 -9.3305,-2.80645 -23.6293,-8.39363 -25.0069,-9.77128 -0.2649,-0.26488 9.4546,-21.65714 10.252,-22.56431 0.1421,-0.16177 2.8235,0.84022 5.9584,2.22665 8.7511,3.87011 26.0458,9.20146 38.312,11.8102 9.6129,2.04448 13.7743,2.34724 31.6895,2.30555 23.4776,-0.0546 31.5118,-1.33619 42.2139,-6.73378 8.839,-4.45794 12.3554,-9.02322 12.9156,-16.76847 0.9738,-13.46292 -5.2911,-20.82246 -21.1448,-24.8392 -5.0522,-1.28004 -14.4383,-1.70718 -46.8114,-2.13029 l -40.4922,-0.52922 v -36.3683 -36.3683 l -3.5771,-1.92641 c -5.661,-3.04859 -15.6795,-14.42802 -19.3227,-21.94751 -4.4476,-9.17935 -6.2421,-17.48946 -6.2598,-28.98709 -0.028,-18.55532 5.5029,-32.56948 17.6982,-44.83888 5.6745,-5.70886 9.1203,-8.15522 16.6045,-11.788263 14.5498,-7.062852 24.1788,-9.044729 44.1517,-9.087463 20.1954,-0.04321 30.5179,1.876143 44.0923,8.198441 l 5.3607,2.496735 26.8319,-10.10552 c 14.7575,-5.558037 27.5109,-10.361918 28.3409,-10.675292 1.1697,-0.441638 2.4973,2.285222 5.9039,12.125514 2.8102,8.117841 4.0164,12.924638 3.3453,13.331378 -0.5772,0.34985 -11.0432,2.86275 -23.2576,5.58422 -12.2146,2.72147 -22.2082,5.30881 -22.2082,5.74966 0,0.44084 1.3425,2.91847 2.9833,5.50584 5.8315,9.1952 7.5798,16.48 7.5798,31.58218 0,16.05631 -1.9676,23.8966 -8.555,34.08869 -9.9411,15.38062 -25.1729,24.90711 -47.2293,29.53876 -7.5027,1.5755 -13.4075,2.01375 -26.9605,2.00094 l -17.3538,-0.0164 v 19.00387 19.00387 l 22.3838,0.0159 c 36.4173,0.026 50.4946,1.78746 63.8113,7.985 12.8304,5.97123 20.4683,16.62752 22.4851,31.37068 3.3163,24.24414 -9.2236,43.08798 -35.3884,53.1782 -14.7933,5.70486 -40.9342,8.56694 -63.9715,7.004 z m 26.0543,-160.36446 c 24.9684,-5.29196 38.9752,-25.06789 35.2033,-49.70243 -3.6075,-23.5604 -19.941,-35.35937 -48.9486,-35.35937 -28.9819,0 -45.3719,11.8571 -48.8663,35.3515 -3.6269,24.38544 10.3154,44.37245 34.6433,49.66311 8.1826,1.7795 19.7033,1.79895 27.9683,0.0472 z M 275.13218,273.2111 c -22.70279,-2.02685 -40.72143,-11.72799 -50.86103,-27.38329 -5.53806,-8.55065 -7.3443,-16.44274 -6.79797,-29.70273 0.39718,-9.63977 0.82786,-11.7456 3.62438,-17.72164 6.0854,-13.00418 19.22197,-22.98059 35.92631,-27.2838 9.4464,-2.43348 25.98988,-3.52074 53.71307,-3.53008 l 25.5446,-0.009 -0.53532,-13.32973 c -0.66936,-16.66706 -2.79205,-23.20242 -9.74066,-29.98959 -3.61162,-3.5277 -6.42848,-5.15476 -12.19182,-7.04212 -6.58908,-2.15777 -9.19746,-2.44208 -21.57927,-2.35204 -12.99025,0.0945 -21.50032,1.05626 -30.7997,3.48097 l -3.63724,0.94837 -1.79164,11.13593 c -1.6749,10.41031 -1.92956,11.10308 -3.9079,10.63149 -1.16393,-0.27744 -6.41696,-1.26773 -11.67339,-2.20063 -5.25644,-0.9329 -9.92539,-2.03461 -10.37543,-2.44824 -0.63981,-0.58803 4.78611,-35.00763 5.65569,-35.87721 1.09751,-1.097517 17.95346,-5.823322 28.38216,-7.957339 10.74867,-2.199498 15.81409,-2.67784 28.65045,-2.705544 16.35512,-0.0353 24.35964,0.97314 35.2106,4.435958 18.94044,6.044375 29.87741,17.736805 35.46502,37.914735 2.00271,7.23216 2.15273,10.57312 2.52244,56.17156 l 0.39308,48.48203 18.78686,6.23196 c 10.33278,3.42757 18.88593,6.30683 19.00702,6.39836 0.40162,0.3036 -6.93234,23.18517 -7.68738,23.98419 -0.40764,0.43138 -12.70185,-3.32921 -27.32048,-8.35687 -25.45145,-8.75332 -26.68604,-9.07351 -29.09436,-7.54578 -12.88354,8.17279 -29.6536,14.08892 -44.11983,15.56459 -5.73005,0.5845 -10.93619,0.99768 -11.56919,0.91817 -0.63302,-0.0795 -4.7726,-0.4679 -9.19907,-0.86308 z m 34.09423,-27.1954 c 8.34063,-2.18462 18.06296,-6.60749 23.50024,-10.69071 l 3.26955,-2.45532 V 212.7191 192.56854 l -33.95307,0.34533 c -33.22625,0.33794 -34.06707,0.39657 -39.27842,2.73917 -6.14279,2.7613 -11.44496,8.43264 -13.12444,14.03822 -1.45742,4.86445 -1.51479,15.18191 -0.1053,18.93973 3.91888,10.44811 14.38032,17.44193 29.62128,19.80279 5.96634,0.92421 22.33514,-0.39208 30.07016,-2.41808 z m 192.76258,27.20412 c -34.55359,-3.56501 -60.31087,-23.77166 -71.1802,-55.84103 -4.05648,-11.96843 -4.76871,-17.5341 -4.69893,-36.71961 0.061,-16.76002 0.32828,-19.58017 2.68746,-28.35132 4.39369,-16.33532 11.65225,-29.07507 22.6975,-39.83724 10.53133,-10.26141 24.3283,-17.359052 40.82088,-20.999677 9.18027,-2.026481 35.04803,-2.039521 46.89801,-0.02364 10.61734,1.806189 24.4687,5.496715 26.66904,7.105642 1.15521,0.84471 2.83718,7.249655 5.58964,21.285415 2.16546,11.04243 3.9414,20.57072 3.94652,21.174 0.008,0.93103 -24.07064,7.02367 -24.5998,6.22454 -0.10172,-0.15361 -1.28372,-6.39084 -2.62666,-13.86052 l -2.44173,-13.58123 -5.22136,-1.73264 c -7.6946,-2.55335 -22.74567,-4.12035 -32.24469,-3.35705 -26.24334,2.10877 -41.50437,15.09358 -48.73415,41.4653 -3.12594,11.40232 -3.12004,39.41666 0.0108,50.94714 4.3572,16.04741 14.01359,29.67915 24.94955,35.22083 9.45743,4.79244 16.02712,6.17516 29.04739,6.11358 16.64524,-0.0787 32.72719,-4.56476 48.2953,-13.47193 l 5.32959,-3.04929 3.45808,4.79606 c 1.90195,2.63782 4.87538,6.89519 6.60763,9.46079 l 3.14954,4.66475 -3.84132,2.54206 c -11.50147,7.61132 -33.54294,16.55819 -45.98478,18.66571 -9.23058,1.56359 -20.30976,2.01296 -28.58323,1.15936 z m 389.01538,-0.0376 c -33.43753,-3.08166 -55.5607,-22.3544 -57.714,-50.27793 -1.51315,-19.62208 7.84053,-37.13342 24.60868,-46.07075 13.46231,-7.17534 28.68936,-9.23051 68.48944,-9.24394 l 25.5138,-0.009 -0.37384,-14.45773 c -0.36725,-14.20235 -0.43601,-14.57999 -3.89261,-21.37786 -2.72649,-5.36207 -4.62136,-7.65825 -8.41598,-10.19845 -7.99813,-5.35413 -14.23379,-6.72709 -30.29703,-6.67075 -13.26682,0.0465 -30.17798,2.23828 -33.60304,4.35508 -0.72106,0.44563 -2.14326,5.44382 -3.16045,11.10706 -1.01719,5.66324 -2.01535,10.46271 -2.21812,10.66548 -0.20277,0.20278 -5.77516,-0.68107 -12.38307,-1.96412 -11.55745,-2.24408 -12.00328,-2.42484 -11.72231,-4.75256 0.16064,-1.33086 1.53963,-9.43672 3.06443,-18.01302 l 2.77235,-15.59326 6.49273,-2.348903 c 18.28089,-6.613551 43.98714,-9.958379 63.38653,-8.247682 26.81422,2.364559 43.90386,11.448495 52.53629,27.925475 7.05847,13.4727 7.0523,13.41763 7.6949,68.68556 l 0.57899,49.79784 18.10834,6.21175 c 9.9595,3.41646 18.5493,6.39289 19.0883,6.6143 0.8043,0.33033 -5.5997,23.31546 -6.8422,24.55795 -0.1995,0.19955 -12.4835,-3.70682 -27.29756,-8.68082 l -26.93477,-9.04363 -5.66635,3.31071 c -19.30178,11.27756 -39.5475,15.77088 -61.81345,13.7188 z m 24.13327,-25.19453 c 10.40614,-1.42905 21.40278,-5.15809 29.75029,-10.08854 l 6.79061,-4.01089 v -20.65065 -20.65066 l -33.45006,0.37038 c -36.14528,0.40022 -38.23745,0.6886 -45.56949,6.28102 -6.68256,5.09703 -9.99411,18.03258 -7.13458,27.86902 4.74018,16.30565 23.97549,24.40106 49.61323,20.88032 z m 417.87976,25.15276 c -10.4658,-1.28268 -21.2951,-4.42641 -29.593,-8.59083 -9.0135,-4.52356 -11.7619,-6.47108 -19.6573,-13.9289 -11.6462,-11.00083 -19.5817,-25.7189 -23.8895,-44.30807 -2.277,-9.8253 -2.5883,-37.74647 -0.5274,-47.2828 5.4593,-25.25987 16.0636,-42.05818 34.701,-54.96976 20.0109,-13.863008 51.2432,-18.205077 78.097,-10.85742 29.8392,8.16449 46.2291,32.46093 47.4599,70.35426 0.1527,4.70313 0.1856,12.28598 0.073,16.85078 l -0.2051,8.29963 h -65.0357 -65.0357 l 0.6206,7.34203 c 0.3413,4.03813 1.5837,10.48921 2.761,14.33575 6.5653,21.45298 19.6432,33.5733 40.2459,37.29931 19.8413,3.58832 48.7358,-2.41767 66.3254,-13.78634 3.4375,-2.22186 6.6199,-3.90504 7.0716,-3.7404 0.4518,0.16465 3.7904,4.14737 7.4191,8.8505 l 6.5978,8.55114 -3.7546,3.21456 c -9.8437,8.42797 -34.7096,18.91544 -50.5343,21.31345 -10.4407,1.58215 -25.0384,2.04602 -33.1401,1.0531 z m 58.8494,-115.75362 c -1.3338,-13.53634 -6.1147,-24.63866 -13.7548,-31.94162 -15.7403,-15.04582 -51.6191,-14.36916 -69.9459,1.31916 -7.7662,6.64806 -15.1464,20.8411 -17.9549,34.52902 l -0.6708,3.26956 h 51.5168 51.5167 z m 596.6914,115.73333 c -31.6956,-3.34726 -57.0798,-22.03674 -68.4158,-50.37245 -7.9301,-19.82223 -9.6698,-44.56465 -4.7317,-67.29642 3.773,-17.36808 11.5449,-31.54954 23.5287,-42.93294 16.2803,-15.464785 35.2796,-22.573639 60.5057,-22.639176 32.561,-0.0846 54.5993,11.100656 65.8811,33.437076 7.2739,14.40129 10.8089,34.63097 9.537,54.57642 l -0.6897,10.81468 h -64.7781 -64.7782 l 0.01,2.76655 c 0.014,5.23451 2.1244,15.85742 4.5221,22.76701 4.4812,12.91282 13.303,23.42907 24.2153,28.86617 15.8013,7.87319 40.4928,7.48805 63.7346,-0.99415 8.3321,-3.04084 20.588,-9.34834 21.7184,-11.17736 1.3842,-2.23971 3.5601,-0.53051 9.8708,7.75366 7.6998,10.10785 7.8392,9.34982 -3.0255,16.4589 -14.1697,9.27157 -35.4293,16.40902 -53.8121,18.06616 -11.7256,1.05703 -12.4162,1.05423 -23.2903,-0.0942 z m 58.2472,-116.31611 c -2.1172,-23.36386 -13.648,-37.11652 -34.4584,-41.09822 -9.2726,-1.77414 -14.6773,-1.77459 -24.6156,-0.002 -22.7367,4.05523 -36.5811,19.05483 -42.5426,46.09261 l -0.6099,2.76655 h 51.4648 51.4648 l -0.7031,-7.7589 z m 396.2932,116.42799 c -14.4775,-1.6589 -25.9786,-5.79093 -37.5725,-13.49888 -7.9907,-5.31236 -18.5848,-16.0339 -23.618,-23.9022 -16.8324,-26.31336 -20.416,-65.67129 -8.5702,-94.12613 14.5892,-35.04488 49.9283,-55.18571 90.5645,-51.615486 10.5533,0.927201 24.1898,3.864756 30.8408,6.643731 1.886,0.788008 3.6001,1.432742 3.8092,1.432742 0.2091,0 0.3791,-12.109929 0.378,-26.910953 V 44.343881 l -18.8607,-6.452724 c -10.3734,-3.548997 -18.9677,-6.523213 -19.0986,-6.609367 -0.1309,-0.08616 1.5858,-5.608437 3.8148,-12.271738 l 4.0527,-12.1150932 25.8627,8.8412112 c 14.2245,4.862666 27.6735,9.486199 29.8868,10.274517 l 4.024,1.433305 0.262,104.524558 0.262,104.52457 18.9367,6.47787 18.9368,6.47787 -3.7779,11.97055 c -2.0778,6.5838 -3.9733,12.16587 -4.212,12.4046 -0.2387,0.23873 -12.2384,-3.64089 -26.6659,-8.62138 l -26.2319,-9.05544 -6.7053,4.07363 c -17.2186,10.46066 -37.56,15.16031 -56.3159,13.01119 z m 28.1361,-26.78165 c 3.8085,-0.95666 11.4854,-4.04891 17.0597,-6.87165 l 10.1351,-5.13226 0.2601,-54.94529 0.26,-54.94528 -6.2961,-2.6251 c -12.7161,-5.30177 -31.3207,-8.38674 -43.4013,-7.19664 -34.826,3.43084 -54.8405,32.41436 -50.9407,73.76844 1.9063,20.21407 7.8282,35.03104 18.2628,45.69496 6.4635,6.60557 17.0466,12.21591 26.0213,13.79447 7.3476,1.29238 20.0867,0.60663 28.6391,-1.54165 z M -8.0615795,254.60142 V 241.02019 H 10.549733 29.161046 V 149.47265 57.925109 H 10.549733 -8.0615795 V 44.249136 30.573163 l 63.1275605,0.498099 c 65.726219,0.518603 70.154019,0.789796 85.437729,5.232883 16.83917,4.895273 31.08107,15.837261 37.38416,28.722093 10.94506,22.373988 10.67411,59.633902 -0.5958,81.931372 -1.3983,2.76655 -5.76064,8.22069 -9.69409,12.1203 -16.30563,16.16539 -38.34782,21.58127 -87.834177,21.58127 H 60.34757 v 30.1805 30.18051 h 24.144405 24.144405 v 13.58123 13.58123 H 50.287401 -8.0615795 Z M 123.61128,150.56048 c 12.34883,-3.24456 21.43984,-10.71036 25.16473,-20.66603 4.163,-11.12661 4.99199,-29.85676 1.89407,-42.794849 -3.14691,-13.142709 -11.18201,-21.905949 -23.50733,-25.637592 -8.13157,-2.46193 -24.84789,-3.671899 -46.191834,-3.343482 l -20.120338,0.309591 -0.261517,47.132062 -0.261517,47.13207 29.436007,-0.48631 c 17.333799,-0.28637 31.249829,-0.96289 33.847729,-1.64546 z m 481.99745,105.57429 v -12.04788 l 16.85078,-0.27582 16.85079,-0.27583 V 143.52848 43.521715 l -18.75964,-6.482255 -18.75965,-6.482254 3.90232,-11.615567 c 2.14627,-6.388561 4.10675,-11.819992 4.3566,-12.0698462 0.35068,-0.3506784 49.61722,16.0750162 58.17659,19.3963442 1.6411,0.636802 1.77036,5.214087 2.01204,71.248175 l 0.25826,70.567648 h 18.53157 18.53156 l 13.89368,-23.64139 c 7.64153,-13.00277 13.90215,-23.98093 13.91249,-24.39591 0.0103,-0.41499 -4.73464,-0.75452 -10.54439,-0.75452 h -10.56317 v -12.0722 -12.072204 h 41.7497 41.7497 v 12.072204 12.0722 H 781.3129 764.86785 l -16.75351,28.57297 c -9.21443,15.71513 -16.7535,29.03769 -16.7535,29.60569 0,0.568 8.85325,15.77804 19.67389,33.80008 l 19.67389,32.76736 h 17.04573 17.04573 v 12.07221 12.0722 l -26.40795,-0.0324 -26.40794,-0.0325 -22.63538,-37.68421 -22.63538,-37.6842 -18.37708,-0.009 -18.37708,-0.009 0.26877,25.40193 0.26878,25.40192 8.80265,0.29067 8.80265,0.29068 v 12.03303 12.03304 h -41.2467 -41.24669 v -12.04788 z m 955.71607,-1.53335 v -13.58123 h 19.1143 19.1143 V 149.47265 57.925109 h -19.1143 -19.1143 V 44.343881 30.762652 h 88.7938 88.7937 l 9.9408,29.929004 c 5.4675,16.460952 10.1114,30.393314 10.3199,30.960805 0.2085,0.56749 -4.9496,2.780647 -11.4626,4.918124 -6.5129,2.137478 -12.3013,4.057555 -12.8631,4.266825 -0.5619,0.20928 -4.6362,-9.355552 -9.0541,-21.255178 l -8.0328,-21.635684 -43.5102,-0.01072 -43.5102,-0.01072 V 96.153753 134.3824 h 33.1985 33.1986 v 13.58123 13.58122 h -33.1986 -33.1985 v 39.73767 39.73767 h 24.6474 24.6474 v 13.58123 13.58123 h -59.355 -59.355 z m 224.3418,1.53395 v -12.04729 l 16.3477,-0.27642 16.3478,-0.27642 v -61.87005 -61.87004 l -16.3478,-0.27642 -16.3477,-0.27643 V 107.19502 95.147736 h 31.683 31.683 l 0.2581,74.193754 0.2579,74.19375 16.8508,0.27583 16.8508,0.27582 v 12.04788 12.04788 h -48.7918 -48.7918 z m 329.9735,-6e-4 v -12.04788 l 16.8508,-0.27582 16.8508,-0.27583 v -58.3134 -58.31341 l -18.1083,-6.26363 c -9.9596,-3.44499 -18.5089,-6.42397 -18.9986,-6.61993 -0.4896,-0.19596 0.8643,-5.68721 3.0087,-12.20275 3.4369,-10.44239 4.1386,-11.793054 5.9203,-11.396005 1.1118,0.247737 13.118,4.297968 26.6804,9.000512 l 24.659,8.550083 5.0185,-2.89021 c 12.7989,-7.370964 31.5065,-13.354475 46.594,-14.902743 11.21,-1.15036 28.1356,-0.04883 37.8999,2.466564 21.47,5.530879 34.7726,18.641789 40.3912,39.808769 1.4662,5.52369 1.7952,13.96589 2.2898,58.76326 l 0.5777,52.31289 16.8508,0.27583 16.8508,0.27582 v 12.04788 12.04788 h -41.2467 -41.2467 v -12.03304 -12.03303 l 8.8026,-0.29068 8.8027,-0.29066 -0.027,-46.77979 c -0.024,-41.2818 -0.2354,-47.6048 -1.7992,-53.79946 -2.1606,-8.55919 -5.2853,-14.08111 -10.774,-19.0398 -8.5712,-7.74353 -22.5148,-10.81467 -39.9967,-8.80944 -10.8507,1.2446 -26.8185,5.87688 -35.6892,10.35346 l -5.7928,2.92336 0.2597,57.57584 0.2598,57.57583 8.8026,0.29066 8.8027,0.29068 v 12.03303 12.03304 h -41.2467 -41.2467 z M 1826.8099,57.989055 c -19.8202,-3.855658 -26.5505,-28.937222 -11.3467,-42.286251 5.052,-4.435729 9.3073,-6.0665078 15.8299,-6.0665078 13.9745,0 26.462,14.1807718 24.2403,27.5272628 -2.292,13.769313 -15.5568,23.386798 -28.7235,20.825496 z"
         style="fill:#000000;fill-opacity:1;stroke-width:1.00602" />
    </g>
  </g>
</svg>
