<?xml version="1.0" encoding="UTF-8" standalone="no"?>
<svg
   xmlns:dc="http://purl.org/dc/elements/1.1/"
   xmlns:cc="http://creativecommons.org/ns#"
   xmlns:rdf="http://www.w3.org/1999/02/22-rdf-syntax-ns#"
   xmlns:svg="http://www.w3.org/2000/svg"
   xmlns="http://www.w3.org/2000/svg"
   xmlns:sodipodi="http://sodipodi.sourceforge.net/DTD/sodipodi-0.dtd"
   xmlns:inkscape="http://www.inkscape.org/namespaces/inkscape"
   sodipodi:docname="PACKAGE_ARROW_FIEND.svg"
   inkscape:version="1.0 (4035a4fb49, 2020-05-01)"
   id="svg2507"
   version="1.1"
   viewBox="0 0 81.643099 7.7669448"
   height="7.7669449mm"
   width="81.643097mm">
  <defs
     id="defs2501">
    <rect
       x="71.857491"
       y="25.686028"
       width="40.057148"
       height="12.436479"
       id="rect3567" />
    <rect
       x="71.857491"
       y="25.686028"
       width="40.057148"
       height="12.436479"
       id="rect3580" />
  </defs>
  <sodipodi:namedview
     inkscape:window-maximized="0"
     inkscape:window-y="101"
     inkscape:window-x="336"
     inkscape:window-height="910"
     inkscape:window-width="1342"
     fit-margin-bottom="0"
     fit-margin-right="0"
     fit-margin-left="0"
     fit-margin-top="0"
     showgrid="false"
     inkscape:document-rotation="0"
     inkscape:current-layer="layer1"
     inkscape:document-units="mm"
     inkscape:cy="184.76656"
     inkscape:cx="262.77578"
     inkscape:zoom="0.35"
     inkscape:pageshadow="2"
     inkscape:pageopacity="0.0"
     borderopacity="1.0"
     bordercolor="#666666"
     pagecolor="#ffffff"
     id="base" />
  <metadata
     id="metadata2504">
    <rdf:RDF>
      <cc:Work
         rdf:about="">
        <dc:format>image/svg+xml</dc:format>
        <dc:type
           rdf:resource="http://purl.org/dc/dcmitype/StillImage" />
        <dc:title></dc:title>
      </cc:Work>
    </rdf:RDF>
  </metadata>
  <g
     transform="translate(-36.307242,-99.280514)"
     id="layer1"
     inkscape:groupmode="layer"
     inkscape:label="Layer 1">
    <g
       aria-label="PACKAGE"
       transform="translate(0.65522659,84.025766)"
       id="text833"
       style="font-style:normal;font-weight:normal;font-size:10.5833px;line-height:1.25;font-family:sans-serif;letter-spacing:-1.02658px;white-space:pre;shape-inside:url(#rect835);display:inline;fill:#000000;fill-opacity:1;stroke:none">
      <path
         d="m 37.25398,18.918595 h 0.315225 q 0.676959,0 1.018022,-0.268716 0.346231,-0.268717 0.346231,-0.873329 0,-0.563272 -0.310057,-0.831988 -0.30489,-0.268717 -0.961179,-0.268717 H 37.25398 Z m 3.302113,-1.198889 q 0,0.496092 -0.149861,0.950843 -0.149861,0.454751 -0.496092,0.800982 -0.341064,0.346231 -0.904335,0.552936 -0.558104,0.206705 -1.384924,0.206705 H 37.25398 v 2.687166 h -1.601965 v -7.55507 h 2.098057 q 0.728635,0 1.255733,0.165364 0.532266,0.160196 0.873329,0.465086 0.346231,0.299723 0.511595,0.738971 0.165364,0.434081 0.165364,0.987017 z"
         style="font-style:normal;font-variant:normal;font-weight:bold;font-stretch:normal;font-family:'Droid Sans';-inkscape-font-specification:'Droid Sans Bold'"
         id="path857" />
      <path
         d="m 44.84183,22.918338 -0.516762,-1.798334 h -2.604484 l -0.521931,1.798334 h -1.617467 l 2.454623,-7.586076 h 1.958531 l 2.464958,7.586076 z m -0.888831,-3.141917 -0.485757,-1.65364 q -0.03101,-0.09302 -0.09302,-0.30489 -0.06201,-0.211873 -0.134358,-0.465087 -0.06718,-0.258381 -0.129191,-0.516762 -0.06201,-0.258382 -0.08785,-0.439249 -0.02067,0.113688 -0.05684,0.268717 -0.03101,0.155029 -0.07751,0.330728 -0.04134,0.170532 -0.08785,0.346231 -0.04651,0.175699 -0.08785,0.330728 -0.04134,0.155029 -0.07751,0.273884 -0.03101,0.118856 -0.04651,0.1757 l -0.480589,1.65364 z"
         style="font-style:normal;font-variant:normal;font-weight:bold;font-stretch:normal;font-family:'Droid Sans';-inkscape-font-specification:'Droid Sans Bold'"
         id="path859" />
      <path
         d="m 49.489301,16.587995 q -0.459918,0 -0.816485,0.180867 -0.351398,0.1757 -0.594277,0.511595 -0.23771,0.330729 -0.361734,0.811318 -0.124023,0.475421 -0.124023,1.069699 0,0.604612 0.108521,1.074866 0.113687,0.470254 0.341063,0.795814 0.232543,0.320393 0.589109,0.490925 0.361734,0.165364 0.857826,0.165364 0.459919,0 0.919838,-0.103352 0.465086,-0.103353 1.007687,-0.294555 v 1.343583 q -0.248046,0.103352 -0.490924,0.175699 -0.242879,0.07235 -0.496092,0.118855 -0.253214,0.04651 -0.521931,0.06718 -0.263549,0.02584 -0.568439,0.02584 -0.873329,0 -1.514114,-0.279052 Q 47.18454,22.463587 46.765962,21.95716 46.347384,21.450732 46.145847,20.7376 45.94431,20.024467 45.94431,19.151138 q 0,-0.857826 0.232543,-1.570958 0.232543,-0.7183 0.682126,-1.235063 0.449584,-0.516763 1.11104,-0.800982 0.661456,-0.289387 1.519282,-0.289387 0.563272,0 1.126543,0.144693 0.568439,0.139526 1.085202,0.387572 l -0.516763,1.302242 q -0.423745,-0.201537 -0.852658,-0.351398 -0.428913,-0.149862 -0.842324,-0.149862 z"
         style="font-style:normal;font-variant:normal;font-weight:bold;font-stretch:normal;font-family:'Droid Sans';-inkscape-font-specification:'Droid Sans Bold'"
         id="path861" />
      <path
         d="m 57.754111,22.918338 h -1.819004 l -1.736323,-3.141917 -0.599445,0.444416 v 2.697501 h -1.601964 v -7.55507 h 1.601964 v 3.638009 l 0.630451,-1.069699 1.725987,-2.56831 h 1.777664 l -2.413282,3.405466 z"
         style="font-style:normal;font-variant:normal;font-weight:bold;font-stretch:normal;font-family:'Droid Sans';-inkscape-font-specification:'Droid Sans Bold'"
         id="path863" />
      <path
         d="m 61.988172,22.918338 -0.516763,-1.798334 h -2.604484 l -0.52193,1.798334 h -1.617467 l 2.454622,-7.586076 h 1.958531 l 2.464958,7.586076 z m -0.888832,-3.141917 -0.485757,-1.65364 q -0.03101,-0.09302 -0.09302,-0.30489 -0.06201,-0.211873 -0.134359,-0.465087 -0.06718,-0.258381 -0.12919,-0.516762 -0.06201,-0.258382 -0.08785,-0.439249 -0.02067,0.113688 -0.05684,0.268717 -0.03101,0.155029 -0.07751,0.330728 -0.04134,0.170532 -0.08785,0.346231 -0.04651,0.175699 -0.08785,0.330728 -0.04134,0.155029 -0.07751,0.273884 -0.03101,0.118856 -0.04651,0.1757 l -0.480589,1.65364 z"
         style="font-style:normal;font-variant:normal;font-weight:bold;font-stretch:normal;font-family:'Droid Sans';-inkscape-font-specification:'Droid Sans Bold'"
         id="path865" />
      <path
         d="m 66.294578,18.675717 h 2.997224 v 3.917061 q -0.299722,0.09819 -0.604612,0.180867 -0.30489,0.07751 -0.635618,0.134358 -0.325561,0.05168 -0.687295,0.08268 -0.356566,0.03101 -0.759641,0.03101 -0.847491,0 -1.503779,-0.248046 -0.651121,-0.253214 -1.100705,-0.744139 -0.444416,-0.496092 -0.676959,-1.219559 -0.232543,-0.728636 -0.232543,-1.679479 0,-0.888832 0.258381,-1.607132 0.258382,-0.7183 0.759641,-1.21956 0.506428,-0.506427 1.240231,-0.775144 0.73897,-0.273884 1.689814,-0.273884 0.604612,0 1.183386,0.12919 0.578774,0.129191 1.059364,0.335896 l -0.532266,1.281572 q -0.351398,-0.1757 -0.795814,-0.294555 -0.439249,-0.118856 -0.925006,-0.118856 -0.527097,0 -0.950843,0.186035 -0.418578,0.180867 -0.7183,0.516763 -0.299722,0.335895 -0.459919,0.811317 -0.160196,0.475422 -0.160196,1.059364 0,0.558103 0.10852,1.02319 0.113688,0.459918 0.351399,0.795814 0.23771,0.335896 0.60978,0.521931 0.377236,0.186034 0.899167,0.186034 0.341063,0 0.573606,-0.03101 0.237711,-0.03101 0.444416,-0.07235 v -1.576127 h -1.431433 z"
         style="font-style:normal;font-variant:normal;font-weight:bold;font-stretch:normal;font-family:'Droid Sans';-inkscape-font-specification:'Droid Sans Bold'"
         id="path867" />
      <path
         d="m 74.414694,22.918338 h -4.351142 v -7.55507 h 4.351142 v 1.312577 h -2.749177 v 1.658808 h 2.557975 v 1.312577 h -2.557975 v 1.948196 h 2.749177 z"
         style="font-style:normal;font-variant:normal;font-weight:bold;font-stretch:normal;font-family:'Droid Sans';-inkscape-font-specification:'Droid Sans Bold'"
         id="path869" />
    </g>
    <path
       d="m 46.447648,39.06427 0,-6.254673 0,-6.254673 5.416705,3.127337 5.416705,3.127336 -5.416705,3.127336 z"
       transform="matrix(0.69469243,0,0,0.48412934,46.078725,87.134822)"
       inkscape:transform-center-x="-1.2543148"
       style="display:inline;fill:#000000;fill-opacity:1;stroke:none;stroke-width:0;stroke-miterlimit:4;stroke-dasharray:none"
       id="path940" />
    <path
       d="m 46.447648,39.06427 0,-6.254673 0,-6.254673 5.416705,3.127337 5.416705,3.127336 -5.416705,3.127336 z"
       transform="matrix(0.69501692,0,0,0.48412937,43.51732,87.134822)"
       inkscape:transform-center-x="-1.2549005"
       style="display:inline;fill:#000000;fill-opacity:1;stroke:none;stroke-width:0;stroke-miterlimit:4;stroke-dasharray:none"
       id="path940-2" />
    <g
       style="font-style:normal;font-weight:normal;font-size:10.8132px;line-height:1.25;font-family:sans-serif;letter-spacing:-0.927229px;word-spacing:0.140571px;white-space:pre;shape-inside:url(#rect3567);display:inline;fill:#000000;fill-opacity:1;stroke:none"
       id="text3565"
       transform="matrix(1,0,0,0.95794245,13.455116,73.174646)"
       aria-label="FIEND">
      <path
         id="path3648"
         style="font-style:italic;font-variant:normal;font-weight:bold;font-stretch:normal;font-size:10.8132px;font-family:sans-serif;-inkscape-font-specification:'sans-serif Bold Italic'"
         d="m 73.620903,27.369829 h 5.480518 l -0.300953,1.536446 h -3.447764 l -0.285113,1.467808 h 3.247128 l -0.306234,1.536446 h -3.241848 l -0.649425,3.342166 h -2.032755 z" />
      <path
         id="path3650"
         style="font-style:italic;font-variant:normal;font-weight:bold;font-stretch:normal;font-size:10.8132px;font-family:sans-serif;-inkscape-font-specification:'sans-serif Bold Italic'"
         d="m 80.08023,27.369829 h 2.032755 l -1.536446,7.882866 h -2.032755 z" />
      <path
         id="path3652"
         style="font-style:italic;font-variant:normal;font-weight:bold;font-stretch:normal;font-size:10.8132px;font-family:sans-serif;-inkscape-font-specification:'sans-serif Bold Italic'"
         d="m 83.176271,27.369829 h 5.480519 l -0.300954,1.536446 h -3.447763 l -0.285114,1.467808 h 3.247128 l -0.306233,1.536446 h -3.241848 l -0.348473,1.80572 h 3.558641 l -0.290393,1.536446 h -5.601956 z" />
      <path
         id="path3654"
         style="font-style:italic;font-variant:normal;font-weight:bold;font-stretch:normal;font-size:10.8132px;font-family:sans-serif;-inkscape-font-specification:'sans-serif Bold Italic'"
         d="m 89.635599,27.369829 h 2.270349 l 1.80572,5.459399 1.061257,-5.459399 h 1.921877 l -1.536446,7.882866 h -2.270349 l -1.80572,-5.459399 -1.055977,5.459399 h -1.927157 z" />
      <path
         id="path3656"
         style="font-style:italic;font-variant:normal;font-weight:bold;font-stretch:normal;font-size:10.8132px;font-family:sans-serif;-inkscape-font-specification:'sans-serif Bold Italic'"
         d="m 99.50045,28.906275 -0.945099,4.809974 h 0.728624 q 1.420285,0 2.249225,-0.797263 0.82895,-0.797262 0.82895,-2.154192 0,-0.918699 -0.54383,-1.388609 -0.53855,-0.46991 -1.60509,-0.46991 z m -1.742361,-1.536446 h 2.138352 q 1.531169,0 2.296749,0.184796 0.76558,0.179516 1.27245,0.607187 0.51215,0.42767 0.77086,1.040137 0.25872,0.607186 0.25872,1.378049 0,1.071816 -0.44351,2.022195 -0.43823,0.945099 -1.23549,1.589245 -0.69695,0.575507 -1.62093,0.818382 -0.9187,0.242875 -2.830015,0.242875 h -2.143632 z" />
    </g>
  </g>
</svg>
