<?xml version="1.0" encoding="UTF-8" standalone="no"?>
<svg
   xmlns:dc="http://purl.org/dc/elements/1.1/"
   xmlns:cc="http://creativecommons.org/ns#"
   xmlns:rdf="http://www.w3.org/1999/02/22-rdf-syntax-ns#"
   xmlns:svg="http://www.w3.org/2000/svg"
   xmlns="http://www.w3.org/2000/svg"
   id="svg2468"
   version="1.1"
   viewBox="0 0 41.136494 10.937552"
   height="10.937552mm"
   width="41.136494mm">
  <defs
     id="defs2462">
    <clipPath
       clipPathUnits="userSpaceOnUse"
       id="clipath_lpe_path-effect1952">
      <path
         style="font-style:normal;font-weight:normal;font-size:10.5833px;line-height:1.25;font-family:sans-serif;letter-spacing:-0.298979px;white-space:pre;shape-inside:url(#rect12);display:none;fill:#000000;fill-opacity:1;stroke:none;stroke-width:0.00374461"
         fill="currentColor"
         d="m 58.007663,41.934175 c -0.06271,0 -0.121727,-0.03401 -0.153635,-0.08842 l -0.238618,-0.402791 -0.238247,0.402791 c -0.03227,0.05479 -0.09129,0.08879 -0.154009,0.08879 -0.01669,0 -0.0334,-0.0023 -0.04936,-0.0072 l -0.508405,-0.148142 v 0.672576 c 0,0.05553 0.03711,0.103912 0.08981,0.117131 l 0.802322,0.204419 c 0.03785,0.0096 0.07756,0.0096 0.115038,0 l 0.803064,-0.204419 c 0.05269,-0.01356 0.08981,-0.06196 0.08981,-0.117131 v -0.672576 l -0.508408,0.147742 c -0.01596,0.005 -0.03265,0.0072 -0.04936,0.0072 z m 0.788961,-0.423949 -0.191115,-0.388432 c -0.01142,-0.02342 -0.03637,-0.03703 -0.06198,-0.03363 l -0.928128,0.120537 0.340302,0.57471 c 0.0141,0.02381 0.04231,0.03515 0.06865,0.02758 l 0.734409,-0.213488 c 0.03675,-0.01093 0.05454,-0.05252 0.03785,-0.08728 z m -2.171314,-0.388432 -0.191116,0.388432 c -0.01708,0.03476 0.0011,0.07634 0.03748,0.0869 l 0.734409,0.213487 c 0.02635,0.0076 0.05454,-0.0038 0.06865,-0.02758 L 57.615404,41.2087 56.686911,41.088163 c -0.0256,-0.0031 -0.05011,0.01025 -0.0616,0.03364 z"
         id="path1959" />
      <path
         id="lpe_path-effect1952"
         style="font-style:normal;font-weight:normal;font-size:10.5833px;line-height:1.25;font-family:sans-serif;letter-spacing:-0.298979px;white-space:pre;shape-inside:url(#rect12);display:inline;fill:#000000;fill-opacity:1;stroke:none;stroke-width:0.00374461"
         class="powerclip"
         d="M 51.916819,37.172012 H 63.313814 V 52.622411 H 51.916819 Z m 6.090844,4.762163 c -0.06271,0 -0.121727,-0.03401 -0.153635,-0.08842 l -0.238618,-0.402791 -0.238247,0.402791 c -0.03227,0.05479 -0.09129,0.08879 -0.154009,0.08879 -0.01669,0 -0.0334,-0.0023 -0.04936,-0.0072 l -0.508405,-0.148142 v 0.672576 c 0,0.05553 0.03711,0.103912 0.08981,0.117131 l 0.802322,0.204419 c 0.03785,0.0096 0.07756,0.0096 0.115038,0 l 0.803064,-0.204419 c 0.05269,-0.01356 0.08981,-0.06196 0.08981,-0.117131 v -0.672576 l -0.508408,0.147742 c -0.01596,0.005 -0.03265,0.0072 -0.04936,0.0072 z m 0.788961,-0.423949 -0.191115,-0.388432 c -0.01142,-0.02342 -0.03637,-0.03703 -0.06198,-0.03363 l -0.928128,0.120537 0.340302,0.57471 c 0.0141,0.02381 0.04231,0.03515 0.06865,0.02758 l 0.734409,-0.213488 c 0.03675,-0.01093 0.05454,-0.05252 0.03785,-0.08728 z m -2.171314,-0.388432 -0.191116,0.388432 c -0.01708,0.03476 0.0011,0.07634 0.03748,0.0869 l 0.734409,0.213487 c 0.02635,0.0076 0.05454,-0.0038 0.06865,-0.02758 L 57.615404,41.2087 56.686911,41.088163 c -0.0256,-0.0031 -0.05011,0.01025 -0.0616,0.03364 z" />
    </clipPath>
    <clipPath
       id="clipath_lpe_path-effect1950"
       clipPathUnits="userSpaceOnUse">
      <path
         id="path2457"
         d="m 58.007663,41.934175 c -0.06271,0 -0.121727,-0.03401 -0.153635,-0.08842 l -0.238618,-0.402791 -0.238247,0.402791 c -0.03227,0.05479 -0.09129,0.08879 -0.154009,0.08879 -0.01669,0 -0.0334,-0.0023 -0.04936,-0.0072 l -0.508405,-0.148142 v 0.672576 c 0,0.05553 0.03711,0.103912 0.08981,0.117131 l 0.802322,0.204419 c 0.03785,0.0096 0.07756,0.0096 0.115038,0 l 0.803064,-0.204419 c 0.05269,-0.01356 0.08981,-0.06196 0.08981,-0.117131 v -0.672576 l -0.508408,0.147742 c -0.01596,0.005 -0.03265,0.0072 -0.04936,0.0072 z m 0.788961,-0.423949 -0.191115,-0.388432 c -0.01142,-0.02342 -0.03637,-0.03703 -0.06198,-0.03363 l -0.928128,0.120537 0.340302,0.57471 c 0.0141,0.02381 0.04231,0.03515 0.06865,0.02758 l 0.734409,-0.213488 c 0.03675,-0.01093 0.05454,-0.05252 0.03785,-0.08728 z m -2.171314,-0.388432 -0.191116,0.388432 c -0.01708,0.03476 0.0011,0.07634 0.03748,0.0869 l 0.734409,0.213487 c 0.02635,0.0076 0.05454,-0.0038 0.06865,-0.02758 L 57.615404,41.2087 56.686911,41.088163 c -0.0256,-0.0031 -0.05011,0.01025 -0.0616,0.03364 z"
         fill="currentColor"
         style="font-style:normal;font-weight:normal;font-size:10.5833px;line-height:1.25;font-family:sans-serif;letter-spacing:-0.298979px;white-space:pre;shape-inside:url(#rect12);display:none;fill:#000000;fill-opacity:1;stroke:none;stroke-width:0.00374461" />
      <path
         d="M 51.916819,37.172012 H 63.313814 V 52.622411 H 51.916819 Z m 6.090844,4.762163 c -0.06271,0 -0.121727,-0.03401 -0.153635,-0.08842 l -0.238618,-0.402791 -0.238247,0.402791 c -0.03227,0.05479 -0.09129,0.08879 -0.154009,0.08879 -0.01669,0 -0.0334,-0.0023 -0.04936,-0.0072 l -0.508405,-0.148142 v 0.672576 c 0,0.05553 0.03711,0.103912 0.08981,0.117131 l 0.802322,0.204419 c 0.03785,0.0096 0.07756,0.0096 0.115038,0 l 0.803064,-0.204419 c 0.05269,-0.01356 0.08981,-0.06196 0.08981,-0.117131 v -0.672576 l -0.508408,0.147742 c -0.01596,0.005 -0.03265,0.0072 -0.04936,0.0072 z m 0.788961,-0.423949 -0.191115,-0.388432 c -0.01142,-0.02342 -0.03637,-0.03703 -0.06198,-0.03363 l -0.928128,0.120537 0.340302,0.57471 c 0.0141,0.02381 0.04231,0.03515 0.06865,0.02758 l 0.734409,-0.213488 c 0.03675,-0.01093 0.05454,-0.05252 0.03785,-0.08728 z m -2.171314,-0.388432 -0.191116,0.388432 c -0.01708,0.03476 0.0011,0.07634 0.03748,0.0869 l 0.734409,0.213487 c 0.02635,0.0076 0.05454,-0.0038 0.06865,-0.02758 L 57.615404,41.2087 56.686911,41.088163 c -0.0256,-0.0031 -0.05011,0.01025 -0.0616,0.03364 z"
         class="powerclip"
         style="font-style:normal;font-weight:normal;font-size:10.5833px;line-height:1.25;font-family:sans-serif;letter-spacing:-0.298979px;white-space:pre;shape-inside:url(#rect12);display:inline;fill:#000000;fill-opacity:1;stroke:none;stroke-width:0.00374461"
         id="lpe_path-effect1950" />
    </clipPath>
  </defs>
  <metadata
     id="metadata2465">
    <rdf:RDF>
      <cc:Work
         rdf:about="">
        <dc:format>image/svg+xml</dc:format>
        <dc:type
           rdf:resource="http://purl.org/dc/dcmitype/StillImage" />
        <dc:title></dc:title>
      </cc:Work>
    </rdf:RDF>
  </metadata>
  <g
     transform="translate(-48.22342,-84.489557)"
     id="layer1">
    <path
       d="m 52.611235,87.421818 q 0,-0.307714 -0.113947,-0.581243 -0.113946,-0.273524 -0.319117,-0.478668 -0.193739,-0.205143 -0.455875,-0.319115 -0.26213,-0.125352 -0.558451,-0.125352 -0.296318,0 -0.558448,0.125352 -0.262132,0.113946 -0.455877,0.319115 -0.19374,0.20514 -0.307719,0.478668 -0.113967,0.273529 -0.113967,0.581243 v 1.493 h 1.43599 q 0.296322,0 0.558454,-0.113947 0.262126,-0.125371 0.455875,-0.319113 0.205141,-0.205141 0.319113,-0.478673 0.113967,-0.273524 0.113967,-0.581243 z m 1.504396,-0.03421 q 0,0.615435 -0.23934,1.151089 -0.227936,0.535658 -0.626829,0.923152 -0.387492,0.387495 -0.900355,0.615435 -0.51286,0.216539 -1.07131,0.216539 H 49.727814 V 92.596 H 48.22342 v -5.208388 q 0,-0.592637 0.227938,-1.116897 0.227939,-0.535656 0.615435,-0.923153 0.398894,-0.39889 0.934546,-0.626832 0.535656,-0.227935 1.162488,-0.227935 0.626831,0 1.162487,0.227935 0.547051,0.227942 0.934548,0.626832 0.398892,0.387497 0.626832,0.923153 0.227937,0.52426 0.227937,1.116897 z"
       style="font-style:normal;font-variant:normal;font-weight:normal;font-stretch:normal;font-size:5.28949px;line-height:1.25;font-family:Chalet;-inkscape-font-specification:'Chalet, Normal';font-variant-ligatures:normal;font-variant-caps:normal;font-variant-numeric:normal;font-variant-east-asian:normal;letter-spacing:-0.298979px;white-space:pre;shape-inside:url(#rect12);display:inline;fill:#000000;fill-opacity:1;stroke:none;stroke-width:2.15463"
       id="path1806-8" />
    <path
       d="m 67.381939,87.847395 h 2.878138 v 1.439067 h -2.878138 v 3.32273 H 65.83757 V 87.07521 q 0,-1.169977 0.643489,-1.871959 0.655185,-0.713688 1.907059,-0.713688 h 2.480349 v 1.520969 h -2.468652 q -0.561585,0 -0.795581,0.233995 -0.222295,0.233994 -0.222295,0.795584 z"
       style="font-style:normal;font-variant:normal;font-weight:normal;font-stretch:normal;font-size:5.28949px;line-height:1.25;font-family:Chalet;-inkscape-font-specification:'Chalet, Normal';font-variant-ligatures:normal;font-variant-caps:normal;font-variant-numeric:normal;font-variant-east-asian:normal;letter-spacing:-0.298979px;white-space:pre;shape-inside:url(#rect12);display:inline;fill:#000000;fill-opacity:1;stroke:none;stroke-width:2.21189"
       id="path1812-2" />
    <path
       d="m 76.628677,88.735694 q -0.190498,-0.232833 -0.46567,-0.359834 -0.275166,-0.126992 -0.613833,-0.126992 -0.306917,0 -0.571503,0.116408 -0.26458,0.116428 -0.465662,0.328085 -0.190499,0.201082 -0.317501,0.486832 -0.116408,0.285749 -0.126992,0.635001 z m 1.56633,2.137833 q -0.243416,0.836081 -0.931333,1.354664 -0.677331,0.508001 -1.703919,0.508001 -0.582084,0 -1.09008,-0.222249 -0.508001,-0.222252 -0.889003,-0.60325 -0.380997,-0.391583 -0.603246,-0.910166 -0.211667,-0.518583 -0.211667,-1.111251 0,-0.592665 0.211667,-1.111249 0.222249,-0.529167 0.603246,-0.910168 0.381002,-0.391582 0.889003,-0.613832 0.507996,-0.232833 1.09008,-0.232833 0.486836,0 0.931336,0.158745 0.444497,0.148161 0.79375,0.444499 0.35983,0.285749 0.60325,0.709083 0.254,0.423334 0.34925,0.973666 l -3.852332,1.619249 q 0.211667,0.275167 0.507996,0.433917 0.296338,0.148161 0.656169,0.148161 0.338667,0 0.656167,-0.148161 0.317502,-0.158745 0.497416,-0.486832 z"
       style="font-style:normal;font-variant:normal;font-weight:normal;font-stretch:normal;font-size:5.28949px;line-height:1.25;font-family:Chalet;-inkscape-font-specification:'Chalet, Normal';font-variant-ligatures:normal;font-variant-caps:normal;font-variant-numeric:normal;font-variant-east-asian:normal;letter-spacing:-0.298979px;white-space:pre;shape-inside:url(#rect12);display:inline;fill:#000000;fill-opacity:1;stroke:none;stroke-width:2.00082"
       id="path1816-5" />
    <path
       d="m 78.570454,89.45536 q 0,-0.518583 0.16933,-0.963084 0.179914,-0.444499 0.497417,-0.772581 0.328083,-0.328085 0.772583,-0.508001 0.455084,-0.190498 1.016,-0.190498 0.5715,0 1.015998,0.179913 0.455083,0.179915 0.762002,0.507999 0.317498,0.317501 0.47625,0.761999 0.169328,0.444501 0.169328,0.984251 v 3.153832 h -1.397 v -3.185583 q 0,-0.116408 -0.03175,-0.28575 -0.03176,-0.179913 -0.137578,-0.349249 -0.105825,-0.16933 -0.306916,-0.28575 -0.201084,-0.116407 -0.550334,-0.116407 -0.465666,0 -0.762,0.285751 -0.296333,0.28575 -0.296333,0.751415 V 92.6092 h -1.397 z"
       style="font-style:normal;font-variant:normal;font-weight:normal;font-stretch:normal;font-size:5.28949px;line-height:1.25;font-family:Chalet;-inkscape-font-specification:'Chalet, Normal';font-variant-ligatures:normal;font-variant-caps:normal;font-variant-numeric:normal;font-variant-east-asian:normal;letter-spacing:-0.298979px;white-space:pre;shape-inside:url(#rect12);display:inline;fill:#000000;fill-opacity:1;stroke:none;stroke-width:2.00082"
       id="path1818-2" />
    <path
       d="m 87.962913,89.899861 q 0,-0.328085 -0.116427,-0.613835 -0.105823,-0.285749 -0.296331,-0.497416 -0.1905,-0.211667 -0.4445,-0.328083 -0.254,-0.126992 -0.53975,-0.126992 -0.28575,0 -0.53975,0.116408 -0.254,0.116428 -0.4445,0.328084 -0.190497,0.211666 -0.306916,0.497417 -0.105844,0.285749 -0.105844,0.624417 0,0.328082 0.105844,0.613832 0.116408,0.275167 0.306916,0.486834 0.190498,0.201082 0.4445,0.317498 0.254,0.116428 0.53975,0.116428 0.28575,0 0.53975,-0.116428 0.254,-0.126992 0.4445,-0.328082 0.190498,-0.211667 0.296331,-0.486835 0.116427,-0.285749 0.116427,-0.603247 z m 1.397,-0.0106 q 0,0.592667 -0.211664,1.11125 -0.201086,0.518583 -0.571502,0.910166 -0.37042,0.380999 -0.888998,0.60325 -0.508002,0.222249 -1.121836,0.222249 -0.624416,0 -1.143,-0.222249 -0.508002,-0.222251 -0.878416,-0.603249 -0.370417,-0.391583 -0.582084,-0.910166 -0.20108,-0.518584 -0.20108,-1.111251 0,-0.582083 0.20108,-1.100666 0.211667,-0.518583 0.560917,-0.910166 0.359833,-0.391583 0.825503,-0.613835 0.47625,-0.222249 1.016,-0.222249 0.973664,0 1.59808,0.635001 v -2.942167 h 1.397 z"
       style="font-style:normal;font-variant:normal;font-weight:normal;font-stretch:normal;font-size:5.28949px;line-height:1.25;font-family:Chalet;-inkscape-font-specification:'Chalet, Normal';font-variant-ligatures:normal;font-variant-caps:normal;font-variant-numeric:normal;font-variant-east-asian:normal;letter-spacing:-0.298979px;white-space:pre;shape-inside:url(#rect12);display:inline;fill:#000000;fill-opacity:1;stroke:none;stroke-width:2.00082"
       id="path1820-3" />
    <path
       transform="matrix(0.98058306,0,0,0.85428016,15.329393,51.926307)"
       clip-path="url(#clipath_lpe_path-effect1950)"
       id="path38-5-1-3"
       style="font-style:normal;font-variant:normal;font-weight:normal;font-stretch:normal;font-size:10.5833px;line-height:1.25;font-family:Chalet;-inkscape-font-specification:'Chalet, Normal';font-variant-ligatures:normal;font-variant-caps:normal;font-variant-numeric:normal;font-variant-east-asian:normal;letter-spacing:-0.298979px;white-space:pre;shape-inside:url(#rect12);display:inline;fill:#000000;fill-opacity:1;stroke:none"
       d="m 58.313814,47.622411 h -1.396995 v -5.450399 l 0.708896,0.113056 0.688099,-0.113056 z" />
    <path
       id="path1553-7-3-7-3"
       d="m 72.299525,87.212536 c -0.06869,0 -0.133354,-0.0366 -0.168309,-0.09514 l -0.261405,-0.433372 -0.260997,0.433372 c -0.03536,0.05894 -0.100001,0.09552 -0.16871,0.09552 -0.01821,0 -0.0366,-0.0026 -0.05406,-0.0078 l -0.556957,-0.159388 v 0.723637 c 0,0.05974 0.04066,0.111806 0.09838,0.126032 l 0.878939,0.219938 c 0.04146,0.0102 0.08496,0.0102 0.126032,0 l 0.879752,-0.219938 c 0.05772,-0.01461 0.09838,-0.06667 0.09838,-0.126032 v -0.723637 l -0.556955,0.158965 c -0.01741,0.0054 -0.03578,0.0078 -0.05408,0.0078 z m 0.864302,-0.456135 -0.209366,-0.417924 c -0.01261,-0.02519 -0.03984,-0.03984 -0.06789,-0.03618 l -1.016756,0.129693 0.372797,0.618345 c 0.01541,0.02561 0.04636,0.03781 0.07521,0.02967 l 0.804539,-0.229697 c 0.04026,-0.0118 0.05974,-0.0565 0.04146,-0.0939 z m -2.378658,-0.417924 -0.209366,0.417924 c -0.01881,0.0374 0.0012,0.08213 0.04106,0.0935 l 0.804539,0.229692 c 0.02887,0.0082 0.05974,-0.004 0.07521,-0.02967 l 0.373201,-0.617937 -1.017158,-0.129694 c -0.02805,-0.0032 -0.0549,0.011 -0.06749,0.03619 z"
       fill="currentColor"
       style="font-style:normal;font-weight:normal;font-size:10.5833px;line-height:1.25;font-family:sans-serif;letter-spacing:-0.298979px;white-space:pre;shape-inside:url(#rect12);display:inline;fill:#000000;fill-opacity:1;stroke:#ffffff;stroke-width:0;stroke-miterlimit:4;stroke-dasharray:none;stroke-opacity:1" />
    <path
       d="m 58.213821,89.784901 q 0.468519,0.239709 0.708223,0.675538 0.250603,0.435829 0.250603,0.991511 v 1.144054 h -1.449135 v -0.904347 q 0,-0.22881 -0.06537,-0.446724 -0.06537,-0.217915 -0.217913,-0.381352 -0.141639,-0.174332 -0.370457,-0.272394 -0.22881,-0.108965 -0.55568,-0.108965 h -0.795391 v 2.113774 h -1.449135 v -8.106439 h 1.449135 v 4.608904 h 0.795391 q 0.32687,0 0.55568,-0.09806 0.228812,-0.108965 0.370458,-0.272394 0.152543,-0.174332 0.217914,-0.392247 0.06537,-0.22881 0.06537,-0.45762 v -0.893445 h 1.449135 v 1.144054 q 0,0.555682 -0.250601,0.991515 -0.239706,0.435829 -0.708224,0.664639 z"
       style="font-style:normal;font-variant:normal;font-weight:normal;font-stretch:normal;font-size:10.5833px;line-height:1.25;font-family:Chalet;-inkscape-font-specification:'Chalet, Normal';font-variant-ligatures:normal;font-variant-caps:normal;font-variant-numeric:normal;font-variant-east-asian:normal;letter-spacing:-0.298979px;white-space:pre;shape-inside:url(#rect12);display:inline;fill:#000000;fill-opacity:1;stroke:none;stroke-width:1.02952"
       id="path28-3-4" />
    <path
       d="m 63.677307,89.924973 q 0,-0.335762 -0.119149,-0.628198 -0.108305,-0.292438 -0.303271,-0.50906 -0.19496,-0.216617 -0.454899,-0.335757 -0.259945,-0.129974 -0.552379,-0.129974 -0.292438,0 -0.552383,0.119149 -0.259941,0.119149 -0.454899,0.335762 -0.19496,0.216619 -0.314099,0.509055 -0.108305,0.292436 -0.108305,0.639027 0,0.335762 0.108305,0.628198 0.119149,0.281606 0.314099,0.498225 0.19496,0.205796 0.454899,0.324929 0.259945,0.119149 0.552383,0.119149 0.292434,0 0.552379,-0.119149 0.259943,-0.129973 0.454899,-0.33576 0.19496,-0.216619 0.303271,-0.498226 0.119149,-0.292434 0.119149,-0.617366 z m 1.429685,2.491123 q 0,0.693183 -0.205795,1.245564 -0.19496,0.563212 -0.57404,0.953126 -0.368255,0.389916 -0.909803,0.595702 -0.530722,0.216621 -1.202241,0.216621 -0.509055,0 -0.963958,-0.140797 -0.454901,-0.140818 -0.812323,-0.400745 -0.357421,-0.249112 -0.606534,-0.606537 -0.249112,-0.357421 -0.324929,-0.801491 h 1.559661 q 0.06499,0.162467 0.19496,0.281605 0.140818,0.119149 0.303268,0.194961 0.162447,0.07581 0.324928,0.108304 0.173311,0.03249 0.32493,0.03249 0.758167,0 1.10476,-0.454901 0.357422,-0.454899 0.357422,-1.20224 V 92.18865 q -0.314097,0.314101 -0.736506,0.476566 -0.411577,0.151642 -0.888141,0.151642 -0.552381,0 -1.039774,-0.227449 -0.487394,-0.227454 -0.855649,-0.617366 -0.357419,-0.400749 -0.57404,-0.920636 -0.205797,-0.530716 -0.205797,-1.13725 0,-0.606537 0.205797,-1.137253 0.216621,-0.541548 0.595703,-0.931467 0.379084,-0.400744 0.898971,-0.628198 0.53072,-0.23828 1.169747,-0.23828 0.628196,0 1.148084,0.23828 0.530716,0.227454 0.909803,0.628198 0.379082,0.389919 0.584871,0.931467 0.216619,0.530716 0.216619,1.137253 z"
       style="font-style:normal;font-variant:normal;font-weight:normal;font-stretch:normal;font-size:10.5833px;line-height:1.25;font-family:Chalet;-inkscape-font-specification:'Chalet, Normal';font-variant-ligatures:normal;font-variant-caps:normal;font-variant-numeric:normal;font-variant-east-asian:normal;letter-spacing:-0.298979px;white-space:pre;shape-inside:url(#rect12);display:inline;fill:#000000;fill-opacity:1;stroke:none;stroke-width:1.0234"
       id="path32-0-0" />
  </g>
</svg>
